Eur.ufo
<glyph name="six" format="2">
  <advance width="632"/>
  <unicode hex="0036"/>
  <guideline x="357" y="234" angle="0" identifier="O0CGbLM8YX"/>
  <outline>
    <contour>
      <point x="577" y="226" type="curve" smooth="yes"/>
      <point x="577" y="378"/>
      <point x="489" y="465"/>
      <point x="334" y="465" type="curve" smooth="yes"/>
      <point x="214" y="465"/>
      <point x="136" y="407"/>
      <point x="110" y="298" type="curve"/>
      <point x="126" y="544"/>
      <point x="182" y="618"/>
      <point x="354" y="618" type="curve" smooth="yes"/>
      <point x="408" y="618"/>
      <point x="459" y="607"/>
      <point x="496" y="587" type="curve"/>
      <point x="576" y="667" type="line"/>
      <point x="519" y="718"/>
      <point x="441" y="746"/>
      <point x="355" y="746" type="curve" smooth="yes"/>
      <point x="151" y="746"/>
      <point x="55" y="626"/>
      <point x="55" y="372" type="curve"/>
      <point x="55" y="267"/>
      <point x="70" y="187"/>
      <point x="101" y="126" type="curve" smooth="yes"/>
      <point x="151" y="29"/>
      <point x="228" y="-16"/>
      <point x="346" y="-16" type="curve" smooth="yes"/>
      <point x="488" y="-16"/>
      <point x="577" y="77"/>
    </contour>
    <contour>
      <point x="525" y="245" type="curve"/>
      <point x="525" y="155"/>
      <point x="454" y="102"/>
      <point x="334" y="102" type="curve" smooth="yes"/>
      <point x="222" y="102"/>
      <point x="156" y="148"/>
      <point x="156" y="226" type="curve"/>
      <point x="156" y="309"/>
      <point x="234" y="374"/>
      <point x="334" y="374" type="curve"/>
      <point x="451" y="374"/>
      <point x="525" y="324"/>
    </contour>
    <contour>
      <point x="123" y="427" type="line"/>
      <point x="153" y="389" type="line"/>
    </contour>
  </outline>
</glyph>
<glyph name="seven" format="2">
  <advance width="560"/>
  <unicode hex="0037"/>
  <guideline x="675" y="86" angle="0" identifier="66Nu9THOuv"/>
  <guideline x="337" y="141" angle="0" identifier="8VdQbjAHHE"/>
  <outline>
    <contour>
      <point x="59" y="663" type="line"/>
      <point x="59" y="529" type="line"/>
      <point x="102" y="529" type="line"/>
      <point x="191" y="663" type="line"/>
    </contour>
    <contour>
      <point x="420" y="636" type="line"/>
      <point x="409" y="734" type="line"/>
      <point x="188" y="1" type="line"/>
      <point x="289" y="1" type="line"/>
      <point x="505" y="734" type="line"/>
      <point x="59" y="734" type="line"/>
      <point x="59" y="636" type="line"/>
    </contour>
    <contour>
      <point x="231" y="142" type="line"/>
      <point x="187" y="107" type="line"/>
      <point x="134" y="107" type="line"/>
      <point x="134" y="0" type="line"/>
      <point x="393" y="0" type="line"/>
      <point x="393" y="109" type="line"/>
      <point x="367" y="109" type="line"/>
      <point x="328" y="143" type="line"/>
    </contour>
  </outline>
</glyph>
<glyph name="less" format="2">
  <advance width="629"/>
  <unicode hex="003C"/>
  <outline>
    <contour>
      <point x="454" y="20" type="line"/>
      <point x="454" y="107" type="line"/>
      <point x="187" y="236" type="line"/>
      <point x="187" y="247" type="line"/>
      <point x="187" y="257" type="line"/>
      <point x="454" y="386" type="line"/>
      <point x="454" y="473" type="line"/>
      <point x="65" y="297" type="line"/>
      <point x="65" y="196" type="line"/>
    </contour>
  </outline>
</glyph>
<glyph name="greater" format="2">
  <advance width="629"/>
  <unicode hex="003E"/>
  <outline>
    <contour>
      <point x="65" y="20" type="line"/>
      <point x="454" y="196" type="line"/>
      <point x="454" y="297" type="line"/>
      <point x="65" y="473" type="line"/>
      <point x="65" y="386" type="line"/>
      <point x="332" y="257" type="line"/>
      <point x="332" y="247" type="line"/>
      <point x="332" y="236" type="line"/>
      <point x="65" y="107" type="line"/>
    </contour>
  </outline>
</glyph>
<glyph name="question" format="2">
  <advance width="492"/>
  <unicode hex="003F"/>
  <outline>
    <contour>
      <point x="85" y="565" type="line"/>
      <point x="10" y="592" type="line"/>
    </contour>
    <contour>
      <point x="276" y="201" type="line"/>
      <point x="280" y="418"/>
      <point x="462" y="341"/>
      <point x="462" y="589" type="curve" smooth="yes"/>
      <point x="462" y="594"/>
      <point x="462" y="598"/>
      <point x="462" y="603" type="curve" smooth="yes"/>
      <point x="462" y="753"/>
      <point x="372" y="814"/>
      <point x="229" y="814" type="curve"/>
      <point x="59" y="814"/>
      <point x="12" y="743"/>
      <point x="11" y="593" type="curve"/>
      <point x="86" y="567" type="line"/>
      <point x="86" y="649"/>
      <point x="119" y="707"/>
      <point x="230" y="707" type="curve"/>
      <point x="352" y="707"/>
      <point x="378" y="674"/>
      <point x="378" y="593" type="curve" smooth="yes"/>
      <point x="378" y="591"/>
      <point x="378" y="586"/>
      <point x="378" y="584" type="curve" smooth="yes"/>
      <point x="378" y="416"/>
      <point x="170" y="443"/>
      <point x="170" y="201" type="curve"/>
    </contour>
    <contour>
      <point x="221" y="127" type="line"/>
      <point x="134" y="82" type="line"/>
      <point x="134" y="25" type="line"/>
      <point x="221" y="-24" type="line"/>
      <point x="308" y="25" type="line"/>
      <point x="308" y="82" type="line"/>
    </contour>
  </outline>
</glyph>
<glyph name="at" format="2">
  <advance width="314"/>
  <unicode hex="0040"/>
  <outline>
    <contour>
      <point x="87" y="705" type="line"/>
      <point x="124" y="218" type="line"/>
      <point x="190" y="218" type="line"/>
      <point x="227" y="705" type="line"/>
      <point x="227" y="760" type="line"/>
      <point x="157" y="798" type="line"/>
      <point x="87" y="760" type="line"/>
    </contour>
    <contour>
      <point x="157" y="119" type="line"/>
      <point x="70" y="74" type="line"/>
      <point x="70" y="17" type="line"/>
      <point x="157" y="-32" type="line"/>
      <point x="244" y="17" type="line"/>
      <point x="244" y="74" type="line"/>
    </contour>
  </outline>
</glyph>
<glyph name="B" format="2">
  <advance width="691"/>
  <unicode hex="0042"/>
  <outline>
    <contour>
      <point x="345" y="750" type="line"/>
      <point x="370" y="632" type="line"/>
      <point x="234" y="632" type="line"/>
      <point x="234" y="112" type="line"/>
      <point x="540" y="114"/>
      <point x="587" y="128"/>
      <point x="587" y="222" type="curve" smooth="yes"/>
      <point x="587" y="317"/>
      <point x="539" y="331"/>
      <point x="211" y="334" type="curve"/>
      <point x="192" y="419" type="line"/>
      <point x="613" y="372"/>
      <point x="661" y="352"/>
      <point x="661" y="216" type="curve" smooth="yes"/>
      <point x="661" y="76"/>
      <point x="583" y="7"/>
      <point x="416" y="0" type="curve" smooth="yes"/>
      <point x="66" y="0" type="line"/>
      <point x="66" y="72" type="line"/>
      <point x="105" y="72" type="line"/>
      <point x="142" y="110" type="line"/>
      <point x="142" y="646" type="line"/>
      <point x="109" y="671" type="line"/>
      <point x="65" y="671" type="line"/>
      <point x="65" y="750" type="line"/>
    </contour>
    <contour>
      <point x="345" y="750" type="line"/>
      <point x="511" y="744"/>
      <point x="590" y="674"/>
      <point x="590" y="533" type="curve" smooth="yes"/>
      <point x="590" y="395"/>
      <point x="542" y="373"/>
      <point x="144" y="329" type="curve"/>
      <point x="160" y="414" type="line"/>
      <point x="487" y="415"/>
      <point x="513" y="424"/>
      <point x="513" y="527" type="curve" smooth="yes"/>
      <point x="513" y="617"/>
      <point x="464" y="631"/>
      <point x="163" y="633" type="curve"/>
    </contour>
  </outline>
</glyph>
<glyph name="C" format="2">
  <advance width="739"/>
  <unicode hex="0043"/>
  <guideline x="689" y="423" angle="90" identifier="TPW7AjPds7"/>
  <guideline x="553" y="10" angle="0" name="bottom" identifier="egP0EYSlo4"/>
  <outline>
    <contour>
      <point x="687" y="262" type="curve"/>
      <point x="611" y="282" type="line"/>
      <point x="586" y="184"/>
      <point x="492" y="120"/>
      <point x="375" y="120" type="curve" smooth="yes"/>
      <point x="219" y="120"/>
      <point x="107" y="228"/>
      <point x="107" y="380" type="curve" smooth="yes"/>
      <point x="107" y="533"/>
      <point x="221" y="642"/>
      <point x="381" y="642" type="curve" smooth="yes"/>
      <point x="483" y="642"/>
      <point x="573" y="594"/>
      <point x="619" y="517" type="curve"/>
      <point x="687" y="542" type="line"/>
      <point x="632" y="672"/>
      <point x="507" y="762"/>
      <point x="383" y="762" type="curve" smooth="yes"/>
      <point x="191" y="762"/>
      <point x="45" y="598"/>
      <point x="45" y="382" type="curve" smooth="yes"/>
      <point x="45" y="131"/>
      <point x="168" y="-14"/>
      <point x="382" y="-14" type="curve" smooth="yes"/>
      <point x="551" y="-14"/>
      <point x="671" y="95"/>
    </contour>
    <contour>
      <point x="619" y="517" type="line"/>
      <point x="694" y="544" type="line"/>
    </contour>
  </outline>
</glyph>
<glyph name="J" format="2">
  <advance width="574"/>
  <unicode hex="004A"/>
  <outline>
    <contour>
      <point x="250" y="751" type="line"/>
      <point x="534" y="751" type="line"/>
      <point x="534" y="660" type="line"/>
      <point x="250" y="660" type="line"/>
    </contour>
    <contour>
      <point x="448" y="629" type="line"/>
      <point x="362" y="629" type="line"/>
      <point x="279" y="692" type="line"/>
      <point x="532" y="692" type="line"/>
    </contour>
    <contour>
      <point x="360" y="306" type="line"/>
      <point x="360" y="667" type="line"/>
      <point x="449" y="667" type="line"/>
      <point x="449" y="306" type="line"/>
    </contour>
    <contour>
      <point x="30" y="28" type="line"/>
      <point x="82" y="138" type="line"/>
    </contour>
    <contour>
      <point x="30" y="28" type="line"/>
      <point x="70" y="9"/>
      <point x="118" y="0"/>
      <point x="177" y="0" type="curve" smooth="yes"/>
      <point x="354" y="0"/>
      <point x="449" y="107"/>
      <point x="449" y="306" type="curve"/>
      <point x="360" y="306" type="line"/>
      <point x="359" y="168"/>
      <point x="317" y="127"/>
      <point x="180" y="127" type="curve" smooth="yes"/>
      <point x="142" y="127"/>
      <point x="108" y="131"/>
      <point x="81" y="138" type="curve"/>
    </contour>
  </outline>
</glyph>
<glyph name="L" format="2">
  <advance width="676"/>
  <unicode hex="004C"/>
  <outline>
    <contour>
      <point x="616" y="73" type="line"/>
      <point x="482" y="73" type="line"/>
      <point x="573" y="209" type="line"/>
      <point x="616" y="209" type="line"/>
    </contour>
    <contour>
      <point x="235" y="103" type="line"/>
      <point x="150" y="103" type="line"/>
      <point x="150" y="657" type="line"/>
      <point x="235" y="657" type="line"/>
    </contour>
    <contour>
      <point x="150" y="637" type="line"/>
      <point x="65" y="699" type="line"/>
      <point x="319" y="699" type="line"/>
      <point x="236" y="637" type="line"/>
    </contour>
    <contour>
      <point x="235" y="93" type="line"/>
      <point x="150" y="93" type="line"/>
    </contour>
    <contour>
      <point x="616" y="0" type="line"/>
      <point x="65" y="0" type="line"/>
      <point x="65" y="84" type="line"/>
      <point x="616" y="84" type="line"/>
    </contour>
    <contour>
      <point x="150" y="113" type="line"/>
      <point x="236" y="113" type="line"/>
      <point x="319" y="51" type="line"/>
      <point x="65" y="51" type="line"/>
    </contour>
    <contour>
      <point x="319" y="666" type="line"/>
      <point x="65" y="666" type="line"/>
      <point x="63" y="750" type="line"/>
      <point x="319" y="750" type="line"/>
    </contour>
  </outline>
</glyph>
<glyph name="O" format="2">
  <advance width="764"/>
  <unicode hex="004F"/>
  <outline>
    <contour>
      <point x="381" y="763" type="curve" smooth="yes"/>
      <point x="590" y="763"/>
      <point x="719" y="618"/>
      <point x="719" y="382" type="curve"/>
      <point x="719" y="142"/>
      <point x="586" y="-14"/>
      <point x="382" y="-14" type="curve" smooth="yes"/>
      <point x="168" y="-14"/>
      <point x="45" y="130"/>
      <point x="45" y="381" type="curve"/>
      <point x="45" y="629"/>
      <point x="163" y="763"/>
    </contour>
    <contour>
      <point x="380" y="116" type="curve" smooth="yes"/>
      <point x="540" y="116"/>
      <point x="654" y="227"/>
      <point x="654" y="382" type="curve"/>
      <point x="652" y="532"/>
      <point x="542" y="634"/>
      <point x="381" y="634" type="curve" smooth="yes"/>
      <point x="221" y="634"/>
      <point x="107" y="525"/>
      <point x="107" y="370" type="curve"/>
      <point x="107" y="218"/>
      <point x="217" y="116"/>
    </contour>
  </outline>
</glyph>
<glyph name="T" format="2">
  <advance width="673"/>
  <unicode hex="0054"/>
  <guideline x="327" y="637" angle="0" identifier="44HygTSboM"/>
  <outline>
    <contour>
      <point x="290" y="125" type="line"/>
      <point x="231" y="80" type="line"/>
      <point x="172" y="80" type="line"/>
      <point x="172" y="0" type="line"/>
      <point x="491" y="0" type="line"/>
      <point x="491" y="85" type="line"/>
      <point x="432" y="85" type="line"/>
      <point x="376" y="125" type="line"/>
      <point x="376" y="637" type="line"/>
      <point x="420" y="666" type="line"/>
      <point x="531" y="666" type="line"/>
      <point x="614" y="542" type="line"/>
      <point x="653" y="542" type="line"/>
      <point x="653" y="750" type="line"/>
      <point x="20" y="750" type="line"/>
      <point x="20" y="544" type="line"/>
      <point x="59" y="544" type="line"/>
      <point x="142" y="666" type="line"/>
      <point x="251" y="666" type="line"/>
      <point x="290" y="637" type="line"/>
    </contour>
  </outline>
</glyph>
<glyph name="V" format="2">
  <advance width="692"/>
  <unicode hex="0056"/>
  <guideline x="183" y="668" angle="0" identifier="tvUn3z1lqf"/>
  <outline>
    <contour>
      <point x="150" y="632" type="move"/>
      <point x="180" y="668" type="line"/>
      <point x="244" y="668" type="line"/>
      <point x="244" y="753" type="line"/>
      <point x="10" y="753" type="line"/>
      <point x="10" y="668" type="line"/>
      <point x="35" y="668" type="line"/>
      <point x="62" y="635" type="line"/>
      <point x="230" y="107" type="line"/>
      <point x="263" y="-1" type="line"/>
      <point x="430" y="-1" type="line"/>
      <point x="461" y="105" type="line"/>
      <point x="630" y="633" type="line"/>
      <point x="657" y="666" type="line"/>
      <point x="682" y="666" type="line"/>
      <point x="682" y="751" type="line"/>
      <point x="448" y="751" type="line"/>
      <point x="448" y="666" type="line"/>
      <point x="512" y="666" type="line"/>
      <point x="542" y="630" type="line"/>
      <point x="387" y="127" type="line"/>
      <point x="302" y="127" type="line"/>
    </contour>
  </outline>
</glyph>
<glyph name="X" format="2">
  <advance width="763"/>
  <unicode hex="0058"/>
  <outline>
    <contour>
      <point x="210" y="632" type="line"/>
      <point x="230" y="668" type="line"/>
      <point x="294" y="668" type="line"/>
      <point x="294" y="753" type="line"/>
      <point x="40" y="753" type="line"/>
      <point x="40" y="668" type="line"/>
      <point x="85" y="668" type="line"/>
      <point x="112" y="635" type="line"/>
      <point x="313" y="339" type="line"/>
      <point x="450" y="339" type="line"/>
      <point x="650" y="633" type="line"/>
      <point x="677" y="666" type="line"/>
      <point x="722" y="666" type="line"/>
      <point x="722" y="751" type="line"/>
      <point x="468" y="751" type="line"/>
      <point x="468" y="666" type="line"/>
      <point x="532" y="666" type="line"/>
      <point x="552" y="630" type="line"/>
      <point x="407" y="426" type="line"/>
      <point x="352" y="426" type="line"/>
    </contour>
    <contour>
      <point x="363" y="347" type="line"/>
      <point x="398" y="347" type="line"/>
      <point x="553" y="124" type="line"/>
      <point x="523" y="88" type="line"/>
      <point x="469" y="88" type="line"/>
      <point x="469" y="3" type="line"/>
      <point x="723" y="3" type="line"/>
      <point x="723" y="88" type="line"/>
      <point x="678" y="88" type="line"/>
      <point x="651" y="121" type="line"/>
      <point x="441" y="436" type="line"/>
      <point x="314" y="436" type="line"/>
      <point x="113" y="119" type="line"/>
      <point x="86" y="86" type="line"/>
      <point x="42" y="86" type="line"/>
      <point x="42" y="1" type="line"/>
      <point x="295" y="1" type="line"/>
      <point x="295" y="86" type="line"/>
      <point x="241" y="86" type="line"/>
      <point x="211" y="122" type="line"/>
    </contour>
  </outline>
</glyph>
<glyph name="bracketleft" format="2">
  <advance width="281"/>
  <unicode hex="005B"/>
  <outline>
    <contour>
      <point x="60" y="-100" type="line"/>
      <point x="261" y="-100" type="line"/>
      <point x="261" y="-15" type="line"/>
      <point x="202" y="-15" type="line"/>
      <point x="146" y="25" type="line"/>
      <point x="146" y="712" type="line"/>
      <point x="202" y="752" type="line"/>
      <point x="261" y="752" type="line"/>
      <point x="261" y="837" type="line"/>
      <point x="60" y="837" type="line"/>
    </contour>
  </outline>
</glyph>
<glyph name="bracketright" format="2">
  <advance width="281"/>
  <unicode hex="005D"/>
  <outline>
    <contour>
      <point x="221" y="837" type="line"/>
      <point x="20" y="837" type="line"/>
      <point x="20" y="752" type="line"/>
      <point x="79" y="752" type="line"/>
      <point x="135" y="712" type="line"/>
      <point x="135" y="25" type="line"/>
      <point x="79" y="-15" type="line"/>
      <point x="20" y="-15" type="line"/>
      <point x="20" y="-100" type="line"/>
      <point x="221" y="-100" type="line"/>
    </contour>
  </outline>
</glyph>
<glyph name="grave" format="2">
  <unicode hex="0060"/>
  <anchor x="273" y="688" name=" _top"/>
  <outline>
    <contour>
      <point x="267" y="754" type="line"/>
      <point x="210" y="797" type="line"/>
      <point x="163" y="775" type="line"/>
      <point x="152" y="702" type="line"/>
      <point x="214" y="662" type="line"/>
      <point x="262" y="682" type="line"/>
    </contour>
    <contour>
      <point x="214" y="662" type="line"/>
      <point x="385" y="608" type="line"/>
      <point x="409" y="639" type="line"/>
      <point x="267" y="754" type="line"/>
    </contour>
  </outline>
</glyph>
<glyph name="b" format="2">
  <advance width="681"/>
  <unicode hex="0062"/>
  <outline>
    <contour>
      <point x="201" y="251" type="curve" smooth="yes"/>
      <point x="201" y="165"/>
      <point x="278" y="104"/>
      <point x="386" y="104" type="curve" smooth="yes"/>
      <point x="493" y="104"/>
      <point x="570" y="165"/>
      <point x="570" y="251" type="curve" smooth="yes"/>
      <point x="570" y="335"/>
      <point x="494" y="394"/>
      <point x="386" y="394" type="curve" smooth="yes"/>
      <point x="277" y="394"/>
      <point x="201" y="335"/>
    </contour>
    <contour>
      <point x="636" y="242" type="curve" smooth="yes"/>
      <point x="636" y="91"/>
      <point x="535" y="-6"/>
      <point x="377" y="-6" type="curve" smooth="yes"/>
      <point x="333" y="-6"/>
      <point x="303" y="0"/>
      <point x="277" y="14" type="curve"/>
      <point x="125" y="158" type="line"/>
      <point x="101" y="213" type="line"/>
      <point x="101" y="223"/>
      <point x="101" y="231"/>
      <point x="101" y="239" type="curve" smooth="yes"/>
      <point x="101" y="323"/>
      <point x="101" y="323"/>
      <point x="162" y="357" type="curve"/>
      <point x="258" y="474" type="line"/>
      <point x="286" y="492"/>
      <point x="343" y="509"/>
      <point x="377" y="509" type="curve" smooth="yes"/>
      <point x="527" y="509"/>
      <point x="636" y="397"/>
    </contour>
    <contour>
      <point x="179" y="0" type="line"/>
      <point x="100" y="0" type="line"/>
      <point x="100" y="643" type="line"/>
      <point x="25" y="672" type="line"/>
      <point x="25" y="718" type="line"/>
      <point x="104" y="766" type="line"/>
      <point x="179" y="717" type="line"/>
    </contour>
  </outline>
</glyph>
<glyph name="g" format="2">
  <advance width="688"/>
  <unicode hex="0067"/>
  <outline>
    <contour>
      <point x="570" y="392" type="line"/>
      <point x="570" y="509" type="line"/>
      <point x="648" y="464" type="line"/>
      <point x="648" y="420" type="line"/>
    </contour>
    <contour>
      <point x="481" y="251" type="curve" smooth="yes"/>
      <point x="481" y="165"/>
      <point x="407" y="104"/>
      <point x="302" y="104" type="curve" smooth="yes"/>
      <point x="198" y="104"/>
      <point x="123" y="165"/>
      <point x="123" y="251" type="curve" smooth="yes"/>
      <point x="123" y="335"/>
      <point x="197" y="394"/>
      <point x="302" y="394" type="curve" smooth="yes"/>
      <point x="407" y="394"/>
      <point x="481" y="335"/>
    </contour>
    <contour>
      <point x="52" y="241" type="curve" smooth="yes"/>
      <point x="52" y="89"/>
      <point x="146" y="-6"/>
      <point x="295" y="-6" type="curve" smooth="yes"/>
      <point x="295" y="-6"/>
      <point x="300" y="-6"/>
      <point x="308" y="-6" type="curve" smooth="yes"/>
      <point x="333" y="-6"/>
      <point x="384" y="-6"/>
      <point x="397" y="8" type="curve" smooth="yes"/>
      <point x="519" y="140" type="line"/>
      <point x="519" y="348" type="line"/>
      <point x="423" y="476" type="line"/>
      <point x="384" y="501"/>
      <point x="365" y="506"/>
      <point x="314" y="506" type="curve" smooth="yes"/>
      <point x="308" y="506"/>
      <point x="302" y="506"/>
      <point x="296" y="506" type="curve" smooth="yes"/>
      <point x="146" y="506"/>
      <point x="52" y="403"/>
    </contour>
    <contour>
      <point x="144" y="-37" type="curve"/>
      <point x="65" y="-37" type="line"/>
      <point x="65" y="-172"/>
      <point x="171" y="-260"/>
      <point x="333" y="-260" type="curve" smooth="yes"/>
      <point x="489" y="-260"/>
      <point x="570" y="-184"/>
      <point x="570" y="-37" type="curve" smooth="yes"/>
      <point x="570" y="509" type="line"/>
      <point x="493" y="456" type="line"/>
      <point x="493" y="-37" type="line" smooth="yes"/>
      <point x="493" y="-98"/>
      <point x="413" y="-156"/>
      <point x="327" y="-156" type="curve" smooth="yes"/>
      <point x="237" y="-156"/>
      <point x="144" y="-96"/>
    </contour>
  </outline>
</glyph>
<glyph name="i" format="2">
  <advance width="336"/>
  <unicode hex="0069"/>
  <guideline x="151" y="604" angle="90" identifier="3b5OPzAku7"/>
  <guideline x="33" y="661" angle="90" identifier="zTt8Ug2pfN"/>
  <guideline x="159" y="707" angle="0" identifier="Xis33ZnL9X"/>
  <guideline x="163" y="651" angle="0" identifier="iRdIpXgknN"/>
  <outline>
    <contour>
      <point x="286" y="-1" type="line"/>
      <point x="47" y="-1" type="line"/>
      <point x="47" y="104" type="line"/>
      <point x="286" y="104" type="line"/>
    </contour>
    <contour>
      <point x="142" y="134" type="line"/>
      <point x="208" y="134" type="line"/>
      <point x="286" y="74" type="line"/>
      <point x="57" y="74" type="line"/>
    </contour>
    <contour>
      <point x="141" y="-1" type="line"/>
      <point x="141" y="379" type="line"/>
      <point x="64" y="422" type="line"/>
      <point x="64" y="470" type="line"/>
      <point x="147" y="510" type="line"/>
      <point x="211" y="474" type="line"/>
      <point x="211" y="-1" type="line"/>
    </contour>
    <contour>
      <point x="240.0" y="706.0" type="line"/>
      <point x="154.0" y="751" type="line"/>
      <point x="66" y="706" type="line"/>
      <point x="66.0" y="649.0" type="line"/>
      <point x="153.0" y="604.0" type="line"/>
      <point x="240.0" y="649" type="line"/>
    </contour>
    <contour>
      <point x="154.0" y="751" type="line"/>
      <point x="241.0" y="706.0" type="line"/>
    </contour>
  </outline>
</glyph>
<glyph name="l" format="2">
  <advance width="330"/>
  <unicode hex="006C"/>
  <outline>
    <contour>
      <point x="294" y="-1" type="line"/>
      <point x="34" y="-1" type="line"/>
      <point x="34" y="86" type="line"/>
      <point x="294" y="86" type="line"/>
    </contour>
    <contour>
      <point x="130" y="118" type="line"/>
      <point x="205" y="118" type="line"/>
      <point x="284" y="57" type="line"/>
      <point x="44" y="57" type="line"/>
    </contour>
    <contour>
      <point x="128" y="8" type="line"/>
      <point x="128" y="662" type="line"/>
      <point x="53" y="689" type="line"/>
      <point x="53" y="731" type="line"/>
      <point x="136" y="774" type="line"/>
      <point x="206" y="745" type="line"/>
      <point x="206" y="8" type="line"/>
    </contour>
  </outline>
</glyph>
<glyph name="o" format="2">
  <advance width="572"/>
  <unicode hex="006F"/>
  <guideline x="296" y="213" angle="90" name="center" identifier="x754KQXiID"/>
  <outline>
    <contour>
      <point x="532" y="256" type="curve" smooth="yes"/>
      <point x="532" y="96"/>
      <point x="435" y="-8"/>
      <point x="285" y="-8" type="curve" smooth="yes"/>
      <point x="127" y="-8"/>
      <point x="40" y="86"/>
      <point x="40" y="256" type="curve" smooth="yes"/>
      <point x="40" y="401"/>
      <point x="143" y="506"/>
      <point x="286" y="506" type="curve" smooth="yes"/>
      <point x="419" y="506"/>
      <point x="532" y="391"/>
    </contour>
    <contour>
      <point x="466" y="247" type="curve" smooth="yes"/>
      <point x="466" y="332"/>
      <point x="391" y="393"/>
      <point x="286" y="393" type="curve" smooth="yes"/>
      <point x="181" y="393"/>
      <point x="106" y="332"/>
      <point x="106" y="247" type="curve" smooth="yes"/>
      <point x="106" y="162"/>
      <point x="181" y="101"/>
      <point x="286" y="101" type="curve" smooth="yes"/>
      <point x="391" y="101"/>
      <point x="466" y="162"/>
    </contour>
  </outline>
</glyph>
<glyph name="r" format="2">
  <advance width="524"/>
  <unicode hex="0072"/>
  <outline>
    <contour>
      <point x="294" y="-1" type="line"/>
      <point x="55" y="-1" type="line"/>
      <point x="55" y="87" type="line"/>
      <point x="294" y="87" type="line"/>
    </contour>
    <contour>
      <point x="140" y="117" type="line"/>
      <point x="215" y="117" type="line"/>
      <point x="294" y="57" type="line"/>
      <point x="55" y="57" type="line"/>
    </contour>
    <contour>
      <point x="139" y="-1" type="line"/>
      <point x="139" y="402" type="line"/>
      <point x="63" y="429" type="line"/>
      <point x="63" y="471" type="line"/>
      <point x="146" y="514" type="line"/>
      <point x="217" y="485" type="line"/>
      <point x="217" y="-1" type="line"/>
    </contour>
    <contour>
      <point x="210" y="386" type="line"/>
      <point x="297" y="481" type="line"/>
      <point x="315" y="491"/>
      <point x="345" y="500"/>
      <point x="369" y="503" type="curve" smooth="yes"/>
      <point x="382" y="505"/>
      <point x="394" y="506"/>
      <point x="405" y="506" type="curve" smooth="yes"/>
      <point x="445" y="506"/>
      <point x="479" y="495"/>
      <point x="504" y="474" type="curve"/>
      <point x="460" y="364" type="line"/>
      <point x="438" y="379"/>
      <point x="406" y="389"/>
      <point x="369" y="391" type="curve"/>
      <point x="363" y="391"/>
      <point x="358" y="391"/>
      <point x="353" y="391" type="curve" smooth="yes"/>
      <point x="267" y="391"/>
      <point x="218" y="363"/>
      <point x="218" y="314" type="curve"/>
    </contour>
  </outline>
</glyph>
<glyph name="s" format="2">
  <advance width="528"/>
  <unicode hex="0073"/>
  <guideline x="524" y="13" angle="0" name="bottom" identifier="HJE0onPTXp"/>
  <outline>
    <contour>
      <point x="55" y="178" type="line"/>
      <point x="55" y="43"/>
      <point x="120" y="-14"/>
      <point x="272" y="-14" type="curve" smooth="yes"/>
      <point x="405" y="-14"/>
      <point x="473" y="39"/>
      <point x="473" y="144" type="curve" smooth="yes"/>
      <point x="473" y="310"/>
      <point x="145" y="258"/>
      <point x="145" y="352" type="curve"/>
      <point x="147" y="389"/>
      <point x="186" y="406"/>
      <point x="265" y="406" type="curve" smooth="yes"/>
      <point x="348" y="406"/>
      <point x="408" y="361"/>
      <point x="409" y="299" type="curve"/>
      <point x="463" y="315" type="line"/>
      <point x="464" y="322"/>
      <point x="464" y="330"/>
      <point x="464" y="344" type="curve" smooth="yes"/>
      <point x="464" y="456"/>
      <point x="414" y="499"/>
      <point x="273" y="509" type="curve"/>
      <point x="135" y="509"/>
      <point x="76" y="466"/>
      <point x="76" y="365" type="curve" smooth="yes"/>
      <point x="76" y="361"/>
      <point x="76" y="358"/>
      <point x="76" y="355" type="curve" smooth="yes"/>
      <point x="76" y="283"/>
      <point x="130" y="236"/>
      <point x="240" y="213" type="curve" smooth="yes"/>
      <point x="378" y="183"/>
      <point x="401" y="171"/>
      <point x="401" y="134" type="curve" smooth="yes"/>
      <point x="401" y="98"/>
      <point x="358" y="79"/>
      <point x="276" y="79" type="curve" smooth="yes"/>
      <point x="271" y="79"/>
      <point x="265" y="79"/>
      <point x="259" y="79" type="curve" smooth="yes"/>
      <point x="170" y="81"/>
      <point x="111" y="128"/>
      <point x="111" y="196" type="curve"/>
    </contour>
  </outline>
</glyph>
<glyph name="u" format="2">
  <advance width="619"/>
  <unicode hex="0075"/>
  <guideline x="373" y="2" angle="0" name="bottom" identifier="EyZ5hBX1Ox"/>
  <outline>
    <contour>
      <point x="183" y="500" type="line"/>
      <point x="25" y="500" type="line"/>
      <point x="25" y="413" type="line"/>
      <point x="66" y="413" type="line"/>
      <point x="105" y="385" type="line"/>
      <point x="105" y="173" type="line" smooth="yes"/>
      <point x="105" y="50"/>
      <point x="177" y="-15"/>
      <point x="315" y="-15" type="curve" smooth="yes"/>
      <point x="452" y="-15"/>
      <point x="525" y="50"/>
      <point x="525" y="173" type="curve" smooth="yes"/>
      <point x="525" y="500" type="line"/>
      <point x="367" y="500" type="line"/>
      <point x="367" y="413" type="line"/>
      <point x="408" y="413" type="line"/>
      <point x="446" y="385" type="line"/>
      <point x="446" y="202" type="line" smooth="yes"/>
      <point x="446" y="135"/>
      <point x="395" y="93"/>
      <point x="315" y="93" type="curve" smooth="yes"/>
      <point x="232" y="93"/>
      <point x="183.0" y="135.0"/>
      <point x="183" y="202" type="curve" smooth="yes"/>
    </contour>
    <contour>
      <point x="524" y="385" type="line"/>
      <point x="563" y="413" type="line"/>
      <point x="594" y="413" type="line"/>
      <point x="594" y="500" type="line"/>
      <point x="446" y="500" type="line"/>
    </contour>
    <contour>
      <point x="184" y="383" type="line"/>
      <point x="223" y="411" type="line"/>
      <point x="254" y="411" type="line"/>
      <point x="254" y="500" type="line"/>
      <point x="106" y="500" type="line"/>
    </contour>
  </outline>
</glyph>
<glyph name="v" format="2">
  <advance width="629"/>
  <unicode hex="0076"/>
  <outline>
    <contour>
      <point x="331" y="120" type="line"/>
      <point x="455" y="382" type="line"/>
      <point x="531" y="382" type="line"/>
      <point x="357" y="-2" type="line"/>
      <point x="277" y="-2" type="line"/>
      <point x="102" y="388" type="line"/>
      <point x="177" y="388" type="line"/>
      <point x="306" y="120" type="line"/>
    </contour>
    <contour>
      <point x="259" y="500" type="line"/>
      <point x="259" y="412" type="line"/>
      <point x="20" y="412" type="line"/>
      <point x="20" y="500" type="line"/>
    </contour>
    <contour>
      <point x="105" y="382" type="line"/>
      <point x="20" y="442" type="line"/>
      <point x="259" y="442" type="line"/>
      <point x="180" y="382" type="line"/>
    </contour>
    <contour>
      <point x="609" y="500" type="line"/>
      <point x="609" y="412" type="line"/>
      <point x="370" y="412" type="line"/>
      <point x="370" y="500" type="line"/>
    </contour>
    <contour>
      <point x="455" y="382" type="line"/>
      <point x="370" y="442" type="line"/>
      <point x="606" y="430" type="line"/>
      <point x="530" y="382" type="line"/>
    </contour>
  </outline>
</glyph>
<glyph name="braceleft" format="2">
  <advance width="432"/>
  <unicode hex="007B"/>
  <guideline x="65" y="454" angle="90" identifier="iJPoUxOE6c"/>
  <guideline x="141" y="369" angle="90" identifier="jbR9E0cTOQ"/>
  <outline>
    <contour>
      <point x="512" y="644" type="line"/>
      <point x="289" y="642"/>
      <point x="254" y="602"/>
      <point x="254" y="480" type="curve" smooth="yes"/>
      <point x="254" y="373"/>
      <point x="231" y="302"/>
      <point x="178" y="261" type="curve"/>
      <point x="231" y="221"/>
      <point x="254" y="150"/>
      <point x="254" y="43" type="curve" smooth="yes"/>
      <point x="254" y="-79"/>
      <point x="289" y="-124"/>
      <point x="512" y="-121" type="curve"/>
      <point x="512" y="-225" type="line"/>
      <point x="461" y="-225" type="line" smooth="yes"/>
      <point x="280" y="-225"/>
      <point x="165" y="-134"/>
      <point x="165" y="35" type="curve" smooth="yes"/>
      <point x="165" y="172"/>
      <point x="130" y="220"/>
      <point x="20" y="220" type="curve"/>
      <point x="20" y="303" type="line"/>
      <point x="130" y="303"/>
      <point x="165" y="351"/>
      <point x="165" y="488" type="curve" smooth="yes"/>
      <point x="165" y="657"/>
      <point x="280" y="748"/>
      <point x="461" y="748" type="curve" smooth="yes"/>
      <point x="512" y="748" type="line"/>
    </contour>
  </outline>
</glyph>
<glyph name="bar" format="2">
  <advance width="196"/>
  <unicode hex="007C"/>
  <outline>
    <contour>
      <point x="50" y="-197" type="line"/>
      <point x="76" y="-248" type="line"/>
      <point x="107" y="-248" type="line"/>
      <point x="136" y="-197" type="line"/>
    </contour>
    <contour>
      <point x="50" y="-197" type="line"/>
    </contour>
    <contour>
      <point x="136" y="-198" type="move"/>
      <point x="136" y="698" type="line"/>
      <point x="50" y="698" type="line"/>
      <point x="50" y="-197" type="line"/>
    </contour>
    <contour>
      <point x="50" y="698" type="line"/>
      <point x="136" y="698" type="line"/>
      <point x="107" y="749" type="line"/>
      <point x="76" y="749" type="line"/>
    </contour>
  </outline>
</glyph>
<glyph name="braceright" format="2">
  <advance width="432"/>
  <unicode hex="007D"/>
  <guideline x="65" y="454" angle="90" identifier="iJPoUxOE6c"/>
  <guideline x="141" y="369" angle="90" identifier="jbR9E0cTOQ"/>
  <outline>
    <contour>
      <point x="-80" y="644" type="curve"/>
      <point x="-80" y="748" type="line"/>
      <point x="-29" y="748" type="line" smooth="yes"/>
      <point x="152" y="748"/>
      <point x="267" y="657"/>
      <point x="267" y="488" type="curve" smooth="yes"/>
      <point x="267" y="351"/>
      <point x="302" y="303"/>
      <point x="412" y="303" type="curve"/>
      <point x="412" y="220" type="line"/>
      <point x="302" y="220"/>
      <point x="267" y="172"/>
      <point x="267" y="35" type="curve" smooth="yes"/>
      <point x="267" y="-134"/>
      <point x="152" y="-225"/>
      <point x="-29" y="-225" type="curve" smooth="yes"/>
      <point x="-80" y="-225" type="line"/>
      <point x="-80" y="-121" type="line"/>
      <point x="143" y="-124"/>
      <point x="178" y="-79"/>
      <point x="178" y="43" type="curve" smooth="yes"/>
      <point x="178" y="150"/>
      <point x="201" y="221"/>
      <point x="254" y="261" type="curve"/>
      <point x="201" y="302"/>
      <point x="178" y="373"/>
      <point x="178" y="480" type="curve" smooth="yes"/>
      <point x="178" y="602"/>
      <point x="143" y="642"/>
    </contour>
  </outline>
</glyph>
<glyph name="asciitilde" format="2">
  <advance width="669"/>
  <unicode hex="007E"/>
  <guideline x="151" y="604" angle="90" identifier="3b5OPzAku7"/>
  <guideline x="33" y="661" angle="90" identifier="zTt8Ug2pfN"/>
  <guideline x="159" y="707" angle="0" identifier="Xis33ZnL9X"/>
  <guideline x="163" y="651" angle="0" identifier="iRdIpXgknN"/>
  <guideline x="355" y="519" angle="90" identifier="tLkfAwrWBN"/>
  <guideline x="357" y="706" angle="90" identifier="CAq7nMxH7G"/>
  <outline>
    <contour>
      <point x="437" y="241" type="line"/>
      <point x="317" y="321" type="line"/>
      <point x="219" y="357" type="line"/>
      <point x="132" y="302" type="line"/>
      <point x="30" y="199" type="line"/>
      <point x="57" y="170" type="line"/>
      <point x="232" y="244" type="line"/>
      <point x="352" y="164" type="line"/>
      <point x="450" y="128" type="line"/>
      <point x="537" y="183" type="line"/>
      <point x="639" y="286" type="line"/>
      <point x="612" y="315" type="line"/>
    </contour>
  </outline>
</glyph>
<glyph name="exclamdown" format="2">
  <advance width="314"/>
  <unicode hex="00A1"/>
  <guideline x="128" y="239" angle="90" identifier="exwaOZLzgE"/>
  <guideline x="174" y="695" angle="0" identifier="URnCwjzEb4"/>
  <outline>
    <contour>
      <point x="87" y="61" type="line"/>
      <point x="87" y="6" type="line"/>
      <point x="157" y="-32" type="line"/>
      <point x="227" y="6" type="line"/>
      <point x="227" y="61" type="line"/>
      <point x="190" y="548" type="line"/>
      <point x="124" y="548" type="line"/>
    </contour>
    <contour>
      <point x="157" y="647" type="line"/>
      <point x="244" y="692" type="line"/>
      <point x="244" y="749" type="line"/>
      <point x="157" y="798" type="line"/>
      <point x="70" y="749" type="line"/>
      <point x="70" y="692" type="line"/>
    </contour>
  </outline>
</glyph>
<glyph name="brokenbar" format="2">
  <advance width="196"/>
  <unicode hex="00A6"/>
  <outline>
    <contour>
      <point x="50" y="-197" type="line"/>
      <point x="76" y="-248" type="line"/>
      <point x="107" y="-248" type="line"/>
      <point x="136" y="-197" type="line"/>
    </contour>
    <contour>
      <point x="50" y="-197" type="line"/>
    </contour>
    <contour>
      <point x="50" y="203" type="line"/>
      <point x="50" y="-198" type="line"/>
      <point x="136" y="-198" type="line"/>
      <point x="136" y="203" type="line"/>
    </contour>
    <contour>
      <point x="50" y="699" type="line"/>
      <point x="136" y="699" type="line"/>
      <point x="107" y="750" type="line"/>
      <point x="76" y="750" type="line"/>
    </contour>
    <contour>
      <point x="50" y="699" type="line"/>
    </contour>
    <contour>
      <point x="50" y="299" type="line"/>
      <point x="136" y="299" type="line"/>
      <point x="136" y="700" type="line"/>
      <point x="50" y="700" type="line"/>
    </contour>
  </outline>
</glyph>
<glyph name="dieresis" format="2">
  <advance width="511"/>
  <unicode hex="00A8"/>
  <guideline x="151" y="604" angle="90" identifier="3b5OPzAku7"/>
  <guideline x="33" y="661" angle="90" identifier="zTt8Ug2pfN"/>
  <guideline x="159" y="707" angle="0" identifier="Xis33ZnL9X"/>
  <guideline x="163" y="651" angle="0" identifier="iRdIpXgknN"/>
  <outline>
    <contour>
      <point x="240" y="706" type="line"/>
      <point x="154" y="751" type="line"/>
      <point x="66" y="706" type="line"/>
      <point x="66" y="649" type="line"/>
      <point x="153" y="604" type="line"/>
      <point x="240" y="649" type="line"/>
    </contour>
    <contour>
      <point x="154" y="751" type="line"/>
      <point x="241" y="706" type="line"/>
    </contour>
    <contour>
      <point x="455" y="706" type="line"/>
      <point x="369" y="751" type="line"/>
      <point x="281" y="706" type="line"/>
      <point x="281" y="649" type="line"/>
      <point x="368" y="604" type="line"/>
      <point x="455" y="649" type="line"/>
    </contour>
    <contour>
      <point x="369" y="751" type="line"/>
      <point x="456" y="706" type="line"/>
    </contour>
  </outline>
</glyph>
<glyph name="copyright" format="2">
  <advance width="594"/>
  <unicode hex="00A9"/>
  <guideline x="472" y="6" angle="0" name="bottom" identifier="nhNAmsvlWF"/>
  <guideline x="381" y="574" angle="90" identifier="ohjab50nsV"/>
  <outline>
    <contour>
      <point x="295" y="510" type="curve" smooth="yes"/>
      <point x="432" y="510"/>
      <point x="544" y="414"/>
      <point x="544" y="260" type="curve"/>
      <point x="544" y="102"/>
      <point x="431" y="0"/>
      <point x="297" y="0" type="curve" smooth="yes"/>
      <point x="156" y="0"/>
      <point x="50" y="94"/>
      <point x="50" y="260" type="curve"/>
      <point x="50" y="422"/>
      <point x="153" y="510"/>
    </contour>
    <contour>
      <point x="297" y="48" type="curve" smooth="yes"/>
      <point x="429" y="47"/>
      <point x="509" y="158"/>
      <point x="509" y="260" type="curve"/>
      <point x="507" y="358"/>
      <point x="435" y="466"/>
      <point x="296" y="466" type="curve" smooth="yes"/>
      <point x="152" y="466"/>
      <point x="89" y="356"/>
      <point x="89" y="253" type="curve"/>
      <point x="89" y="154"/>
      <point x="164" y="48"/>
    </contour>
    <contour>
      <point x="420" y="284" type="line"/>
      <point x="408" y="340"/>
      <point x="356" y="385.0"/>
      <point x="296" y="385.0" type="curve" smooth="yes"/>
      <point x="223" y="385.0"/>
      <point x="169" y="330.0"/>
      <point x="169" y="256" type="curve" smooth="yes"/>
      <point x="169" y="168"/>
      <point x="214" y="120"/>
      <point x="294" y="120" type="curve" smooth="yes"/>
      <point x="356" y="120"/>
      <point x="403" y="154.0"/>
      <point x="418.0" y="209.0" type="curve"/>
      <point x="381" y="219" type="line"/>
      <point x="369" y="193"/>
      <point x="334" y="176.0"/>
      <point x="296" y="176.0" type="curve" smooth="yes"/>
      <point x="243" y="176.0"/>
      <point x="206" y="207"/>
      <point x="206" y="251" type="curve" smooth="yes"/>
      <point x="206" y="297.0"/>
      <point x="243" y="328"/>
      <point x="296" y="328" type="curve" smooth="yes"/>
      <point x="342" y="328"/>
      <point x="373" y="306"/>
      <point x="385.0" y="275.0" type="curve"/>
    </contour>
    <contour>
      <point x="385.0" y="275.0" type="line"/>
      <point x="424" y="284" type="line"/>
    </contour>
    <contour>
      <point x="418.0" y="209.0" type="line"/>
      <point x="382" y="219" type="line"/>
    </contour>
  </outline>
</glyph>
<glyph name="degree" format="2">
  <advance width="104"/>
  <unicode hex="00B0"/>
  <outline>
    <contour>
      <point x="104" y="702" type="curve" smooth="yes"/>
      <point x="104" y="729"/>
      <point x="81" y="753"/>
      <point x="52" y="753" type="curve" smooth="yes"/>
      <point x="21" y="753"/>
      <point x="0" y="731"/>
      <point x="0" y="702" type="curve" smooth="yes"/>
      <point x="0" y="664"/>
      <point x="19" y="644"/>
      <point x="52" y="644" type="curve" smooth="yes"/>
      <point x="85" y="644"/>
      <point x="104" y="666"/>
    </contour>
    <contour>
      <point x="89" y="697" type="curve" smooth="yes"/>
      <point x="89" y="681"/>
      <point x="74" y="666"/>
      <point x="52" y="666" type="curve" smooth="yes"/>
      <point x="30" y="666"/>
      <point x="15" y="681"/>
      <point x="15" y="697" type="curve" smooth="yes"/>
      <point x="15" y="715"/>
      <point x="30" y="730"/>
      <point x="52" y="730" type="curve" smooth="yes"/>
      <point x="74" y="730"/>
      <point x="89" y="715"/>
    </contour>
  </outline>
</glyph>
<glyph name="acute" format="2">
  <unicode hex="00B4"/>
  <outline>
    <contour>
      <point x="294" y="754" type="line"/>
      <point x="299" y="682" type="line"/>
      <point x="347" y="662" type="line"/>
      <point x="409" y="702" type="line"/>
      <point x="398" y="775" type="line"/>
      <point x="351" y="797" type="line"/>
    </contour>
    <contour>
      <point x="347" y="662" type="line"/>
      <point x="294" y="754" type="line"/>
      <point x="152" y="639" type="line"/>
      <point x="176" y="608" type="line"/>
    </contour>
  </outline>
</glyph>
<glyph name="periodcentered" format="2">
  <advance width="293"/>
  <unicode hex="00B7"/>
  <outline>
    <contour>
      <point x="233" y="337" type="line"/>
      <point x="138" y="386" type="line"/>
      <point x="41" y="337" type="line"/>
      <point x="41" y="274" type="line"/>
      <point x="137" y="225" type="line"/>
      <point x="233" y="274" type="line"/>
    </contour>
    <contour>
      <point x="138" y="386" type="line"/>
      <point x="234" y="337" type="line"/>
    </contour>
  </outline>
</glyph>
<glyph name="cedilla" format="2">
  <advance width="580"/>
  <unicode hex="00B8"/>
  <outline>
    <contour>
      <point x="240" y="-87" type="curve"/>
      <point x="254" y="-52" type="line"/>
      <point x="338" y="-52"/>
      <point x="389" y="-80"/>
      <point x="389" y="-146" type="curve"/>
      <point x="389" y="-231"/>
      <point x="327" y="-263"/>
      <point x="270" y="-263" type="curve"/>
      <point x="220" y="-263"/>
      <point x="187" y="-247"/>
      <point x="165" y="-214" type="curve"/>
      <point x="200" y="-193" type="line"/>
      <point x="206" y="-198"/>
      <point x="227" y="-210"/>
      <point x="262" y="-210" type="curve" smooth="yes"/>
      <point x="295" y="-210"/>
      <point x="353" y="-212"/>
      <point x="353" y="-146" type="curve"/>
      <point x="353" y="-105"/>
      <point x="299" y="-87"/>
    </contour>
    <contour>
      <point x="254" y="-52" type="move"/>
      <point x="273" y="10" type="line"/>
      <point x="317" y="6" type="line"/>
      <point x="298" y="-65" type="line"/>
    </contour>
  </outline>
</glyph>
<glyph name="questiondown" format="2">
  <advance width="492"/>
  <unicode hex="00BF"/>
  <outline>
    <contour>
      <point x="407" y="225" type="line"/>
      <point x="482" y="198" type="line"/>
    </contour>
    <contour>
      <point x="216" y="589" type="line"/>
      <point x="212" y="372"/>
      <point x="30" y="449"/>
      <point x="30" y="201" type="curve" smooth="yes"/>
      <point x="30" y="196"/>
      <point x="30" y="192"/>
      <point x="30" y="187" type="curve" smooth="yes"/>
      <point x="30" y="37"/>
      <point x="120" y="-24"/>
      <point x="263" y="-24" type="curve"/>
      <point x="433" y="-24"/>
      <point x="480" y="47"/>
      <point x="481" y="197" type="curve"/>
      <point x="406" y="223" type="line"/>
      <point x="406" y="141"/>
      <point x="373" y="83"/>
      <point x="262" y="83" type="curve"/>
      <point x="140" y="83"/>
      <point x="114" y="116"/>
      <point x="114" y="197" type="curve" smooth="yes"/>
      <point x="114" y="199"/>
      <point x="114" y="204"/>
      <point x="114" y="206" type="curve" smooth="yes"/>
      <point x="114" y="374"/>
      <point x="322" y="347"/>
      <point x="322" y="589" type="curve"/>
    </contour>
    <contour>
      <point x="271" y="663" type="line"/>
      <point x="358" y="708" type="line"/>
      <point x="358" y="765" type="line"/>
      <point x="271" y="814" type="line"/>
      <point x="184" y="765" type="line"/>
      <point x="184" y="708" type="line"/>
    </contour>
  </outline>
</glyph>
<glyph name="agrave" format="2">
  <advance width="577"/>
  <unicode hex="00E0"/>
  <outline>
    <contour>
      <point x="302" y="-4" type="line"/>
      <point x="281" y="-7"/>
      <point x="261" y="-9"/>
      <point x="244" y="-9" type="curve" smooth="yes"/>
      <point x="120" y="-9"/>
      <point x="55" y="46"/>
      <point x="55" y="151" type="curve" smooth="yes"/>
      <point x="55" y="232"/>
      <point x="100" y="279"/>
      <point x="191" y="294" type="curve" smooth="yes"/>
      <point x="208" y="297"/>
      <point x="233" y="300"/>
      <point x="240" y="300" type="curve" smooth="yes"/>
      <point x="392" y="304" type="line"/>
      <point x="410" y="115" type="line"/>
    </contour>
    <contour>
      <point x="537" y="0" type="line"/>
      <point x="412" y="0" type="line"/>
      <point x="412" y="83" type="line"/>
      <point x="537" y="83" type="line"/>
    </contour>
    <contour>
      <point x="461" y="111" type="line"/>
      <point x="464" y="111" type="line"/>
      <point x="537" y="51" type="line"/>
      <point x="461" y="51" type="line"/>
    </contour>
    <contour>
      <point x="126" y="189" type="curve" smooth="yes"/>
      <point x="126" y="177" type="line"/>
      <point x="126" y="134"/>
      <point x="177" y="105"/>
      <point x="253" y="105" type="curve" smooth="yes"/>
      <point x="332" y="105"/>
      <point x="390" y="136"/>
      <point x="390" y="177" type="curve" smooth="yes"/>
      <point x="390" y="241" type="line"/>
      <point x="318" y="241" type="line"/>
      <point x="195" y="241"/>
      <point x="126" y="222"/>
    </contour>
    <contour>
      <point x="343" y="3" type="line"/>
      <point x="421" y="81" type="line"/>
    </contour>
    <contour>
      <point x="301" y="-5" type="line"/>
      <point x="422" y="127" type="line"/>
    </contour>
    <contour>
      <point x="93" y="415" type="line"/>
      <point x="171" y="489" type="line"/>
      <point x="204" y="508"/>
      <point x="245" y="519"/>
      <point x="287" y="519" type="curve" smooth="yes"/>
      <point x="389" y="519"/>
      <point x="472" y="456"/>
      <point x="473" y="378" type="curve" smooth="yes"/>
      <point x="473" y="0" type="line"/>
      <point x="390" y="0" type="line"/>
      <point x="390" y="354" type="line" smooth="yes"/>
      <point x="390" y="390"/>
      <point x="356" y="411"/>
      <point x="299" y="411" type="curve" smooth="yes"/>
      <point x="260" y="411"/>
      <point x="218" y="401"/>
      <point x="189" y="385" type="curve"/>
    </contour>
    <contour>
      <point x="294" y="744" type="line"/>
      <point x="299" y="672" type="line"/>
      <point x="347" y="652" type="line"/>
      <point x="409" y="692" type="line"/>
      <point x="398" y="765" type="line"/>
      <point x="351" y="787" type="line"/>
    </contour>
    <contour>
      <point x="347" y="652" type="line"/>
      <point x="294" y="744" type="line"/>
      <point x="152" y="629" type="line"/>
      <point x="176" y="598" type="line"/>
    </contour>
  </outline>
</glyph>
<glyph name="ae" format="2">
  <advance width="920"/>
  <unicode hex="00E6"/>
  <guideline x="709" y="409" angle="0" identifier="CWfqRMGMfZ"/>
  <anchor x="296" y="658" name="top"/>
  <anchor x="620" y="688" name=" _top"/>
  <outline>
    <contour>
      <point x="302" y="-4" type="line"/>
      <point x="281" y="-7"/>
      <point x="261" y="-9"/>
      <point x="244" y="-9" type="curve" smooth="yes"/>
      <point x="120" y="-9"/>
      <point x="55" y="46"/>
      <point x="55" y="151" type="curve" smooth="yes"/>
      <point x="55" y="232"/>
      <point x="100" y="279"/>
      <point x="191" y="294" type="curve" smooth="yes"/>
      <point x="208" y="297"/>
      <point x="233" y="300"/>
      <point x="240" y="300" type="curve" smooth="yes"/>
      <point x="392" y="304" type="line"/>
      <point x="450" y="105" type="line"/>
    </contour>
    <contour>
      <point x="126" y="189" type="curve" smooth="yes"/>
      <point x="126" y="177" type="line"/>
      <point x="126" y="134"/>
      <point x="177" y="105"/>
      <point x="253" y="105" type="curve" smooth="yes"/>
      <point x="332" y="105"/>
      <point x="390" y="136"/>
      <point x="390" y="177" type="curve" smooth="yes"/>
      <point x="390" y="241" type="line"/>
      <point x="318" y="241" type="line"/>
      <point x="195" y="241"/>
      <point x="126" y="222"/>
    </contour>
    <contour>
      <point x="93" y="415" type="line"/>
      <point x="171" y="489" type="line"/>
      <point x="204" y="508"/>
      <point x="245" y="519"/>
      <point x="287" y="519" type="curve" smooth="yes"/>
      <point x="389" y="519"/>
      <point x="473" y="456"/>
      <point x="473" y="378" type="curve" smooth="yes"/>
      <point x="473" y="241" type="line"/>
      <point x="390" y="241" type="line"/>
      <point x="390" y="354" type="line" smooth="yes"/>
      <point x="390" y="390"/>
      <point x="356" y="411"/>
      <point x="299" y="411" type="curve" smooth="yes"/>
      <point x="260" y="411"/>
      <point x="218" y="401"/>
      <point x="189" y="385" type="curve"/>
    </contour>
    <contour>
      <point x="867" y="129" type="line"/>
      <point x="790" y="147" type="line"/>
    </contour>
    <contour>
      <point x="641" y="412" type="curve" smooth="yes"/>
      <point x="557" y="412"/>
      <point x="492" y="369"/>
      <point x="468" y="312" type="curve"/>
      <point x="796" y="312" type="line"/>
      <point x="774" y="364"/>
      <point x="716" y="412"/>
    </contour>
    <contour>
      <point x="875" y="282" type="curve"/>
      <point x="875" y="241" type="line"/>
      <point x="458" y="241" type="line"/>
      <point x="465" y="154"/>
      <point x="547" y="90"/>
      <point x="653" y="90" type="curve" smooth="yes"/>
      <point x="711" y="90"/>
      <point x="762" y="111"/>
      <point x="790" y="147" type="curve"/>
      <point x="869" y="129" type="line"/>
      <point x="837" y="34"/>
      <point x="764" y="-10"/>
      <point x="639" y="-10" type="curve" smooth="yes"/>
      <point x="489" y="-10"/>
      <point x="392" y="106"/>
      <point x="392" y="270" type="curve" smooth="yes"/>
      <point x="392" y="405"/>
      <point x="505" y="516"/>
      <point x="642" y="516" type="curve" smooth="yes"/>
      <point x="766" y="516"/>
      <point x="874" y="411"/>
    </contour>
  </outline>
</glyph>
<glyph name="ecircumflex" format="2">
  <advance width="576"/>
  <unicode hex="00EA"/>
  <guideline x="357" y="706" angle="90" identifier="4cftrLkDzm"/>
  <outline>
    <contour>
      <point x="90" y="219" type="line"/>
      <point x="531" y="219" type="line"/>
      <point x="531" y="282" type="line"/>
      <point x="57" y="282" type="line"/>
    </contour>
    <contour>
      <point x="531" y="261" type="line"/>
      <point x="530" y="390"/>
      <point x="419" y="506"/>
      <point x="295" y="506" type="curve" smooth="yes"/>
      <point x="158" y="506"/>
      <point x="45" y="395"/>
      <point x="45" y="260" type="curve" smooth="yes"/>
      <point x="45" y="96"/>
      <point x="142" y="-10"/>
      <point x="292" y="-10" type="curve" smooth="yes"/>
      <point x="417" y="-10"/>
      <point x="490" y="34"/>
      <point x="522" y="129" type="curve"/>
      <point x="443" y="147" type="line"/>
      <point x="415" y="111"/>
      <point x="364" y="90"/>
      <point x="306" y="90" type="curve" smooth="yes"/>
      <point x="196" y="90"/>
      <point x="111" y="160"/>
      <point x="111" y="252" type="curve" smooth="yes"/>
      <point x="111" y="336"/>
      <point x="187" y="396"/>
      <point x="294" y="396" type="curve" smooth="yes"/>
      <point x="391" y="396"/>
      <point x="459" y="346"/>
      <point x="459" y="275" type="curve"/>
    </contour>
    <contour>
      <point x="520" y="129" type="line"/>
      <point x="443" y="147" type="line"/>
    </contour>
    <contour>
      <point x="297" y="682" type="line"/>
      <point x="478" y="628" type="line"/>
      <point x="502" y="659" type="line"/>
      <point x="390" y="751" type="line"/>
      <point x="297" y="797" type="line"/>
      <point x="204" y="751" type="line"/>
      <point x="92" y="659" type="line"/>
      <point x="116" y="628" type="line"/>
    </contour>
  </outline>
</glyph>
<glyph name="dcaron" format="2">
  <advance width="686"/>
  <unicode hex="010F"/>
  <outline>
    <contour>
      <point x="489" y="151" type="line"/>
    </contour>
    <contour>
      <point x="476" y="251" type="curve" smooth="yes"/>
      <point x="476" y="335"/>
      <point x="401" y="394"/>
      <point x="294" y="394" type="curve" smooth="yes"/>
      <point x="187" y="394"/>
      <point x="111" y="335"/>
      <point x="111" y="251" type="curve" smooth="yes"/>
      <point x="111" y="165"/>
      <point x="187" y="104"/>
      <point x="294" y="104" type="curve" smooth="yes"/>
      <point x="400" y="104"/>
      <point x="476" y="165"/>
    </contour>
    <contour>
      <point x="45" y="242" type="curve" smooth="yes"/>
      <point x="45" y="398"/>
      <point x="151" y="509"/>
      <point x="300" y="509" type="curve" smooth="yes"/>
      <point x="334" y="509"/>
      <point x="391" y="492"/>
      <point x="419" y="474" type="curve"/>
      <point x="515" y="357" type="line"/>
      <point x="561" y="331"/>
      <point x="566" y="325"/>
      <point x="566" y="287" type="curve" smooth="yes"/>
      <point x="566" y="270"/>
      <point x="565" y="247"/>
      <point x="565" y="213" type="curve"/>
      <point x="551" y="158" type="line"/>
      <point x="400" y="14" type="line"/>
      <point x="374" y="0"/>
      <point x="344" y="-6"/>
      <point x="300" y="-6" type="curve" smooth="yes"/>
      <point x="143" y="-6"/>
      <point x="45" y="90"/>
    </contour>
    <contour>
      <point x="646" y="0" type="line"/>
      <point x="526" y="0" type="line"/>
      <point x="526" y="88" type="line"/>
      <point x="646" y="88" type="line"/>
    </contour>
    <contour>
      <point x="526" y="118" type="line"/>
      <point x="567" y="118" type="line"/>
      <point x="646" y="58" type="line"/>
      <point x="526" y="58" type="line"/>
    </contour>
    <contour>
      <point x="526" y="9" type="line"/>
    </contour>
    <contour>
      <point x="566" y="654" type="line"/>
      <point x="566" y="636" type="line"/>
      <point x="487" y="636" type="line"/>
      <point x="487" y="643" type="line"/>
      <point x="412" y="672" type="line"/>
      <point x="412" y="718" type="line"/>
      <point x="491" y="766" type="line"/>
      <point x="566" y="717" type="line"/>
    </contour>
    <contour>
      <point x="566" y="638" type="line"/>
      <point x="566" y="0" type="line"/>
      <point x="487" y="0" type="line"/>
      <point x="487" y="638" type="line"/>
    </contour>
    <contour>
      <point x="487" y="636" type="line"/>
      <point x="566" y="636" type="line"/>
    </contour>
    <contour>
      <point x="670" y="679" type="line"/>
      <point x="713" y="623" type="line"/>
      <point x="765" y="633" type="line"/>
      <point x="793" y="701" type="line"/>
      <point x="744" y="756" type="line"/>
      <point x="692" y="748" type="line"/>
    </contour>
    <contour>
      <point x="765" y="633" type="line"/>
      <point x="670" y="679" type="line"/>
      <point x="615" y="505" type="line"/>
      <point x="654" y="493" type="line"/>
    </contour>
  </outline>
</glyph>
<glyph name="Dcroat" format="2">
  <advance width="763"/>
  <unicode hex="0110"/>
  <guideline x="364" y="422" angle="90" name="center" identifier="1NDE04hTeg"/>
  <guideline x="128" y="239" angle="90" identifier="Npht0kngmv"/>
  <guideline x="174" y="695" angle="0" identifier="nzq5XiASzj"/>
  <outline>
    <contour>
      <point x="718" y="376" type="curve" smooth="yes"/>
      <point x="718" y="577"/>
      <point x="575" y="751"/>
      <point x="410" y="751" type="curve" smooth="yes"/>
      <point x="65" y="751" type="line"/>
      <point x="65" y="671" type="line"/>
      <point x="109" y="671" type="line"/>
      <point x="142" y="646" type="line"/>
      <point x="142" y="110" type="line"/>
      <point x="105" y="72" type="line"/>
      <point x="66" y="72" type="line"/>
      <point x="66" y="0" type="line"/>
      <point x="416" y="0" type="line" smooth="yes"/>
      <point x="589" y="6"/>
      <point x="718" y="166"/>
    </contour>
    <contour>
      <point x="409" y="632" type="line" smooth="yes"/>
      <point x="545" y="631"/>
      <point x="654" y="518"/>
      <point x="654" y="379" type="curve" smooth="yes"/>
      <point x="654" y="233"/>
      <point x="547" y="113"/>
      <point x="415" y="112" type="curve" smooth="yes"/>
      <point x="233" y="112" type="line"/>
      <point x="233" y="632" type="line"/>
    </contour>
    <contour>
      <point x="87" y="414" type="line"/>
    </contour>
    <contour>
      <point x="272" y="389" type="line"/>
      <point x="86" y="415" type="line"/>
      <point x="19" y="389" type="line"/>
      <point x="19" y="360" type="line"/>
      <point x="86" y="335" type="line"/>
      <point x="273" y="369" type="line"/>
    </contour>
    <contour>
      <point x="87" y="414" type="line"/>
      <point x="274" y="388" type="line"/>
    </contour>
    <contour>
      <point x="86" y="335" type="move"/>
      <point x="388" y="335" type="line"/>
      <point x="453" y="359" type="line"/>
      <point x="453" y="388" type="line"/>
      <point x="388" y="414" type="line"/>
      <point x="87" y="414" type="line"/>
    </contour>
  </outline>
</glyph>
<glyph name="Hbar" format="2">
  <advance width="732"/>
  <unicode hex="0126"/>
  <guideline x="128" y="239" angle="90" identifier="CqlsHIqkRR"/>
  <guideline x="403" y="692" angle="0" identifier="0IeumuOcrQ"/>
  <outline>
    <contour>
      <point x="123" y="624" type="line"/>
    </contour>
    <contour>
      <point x="308" y="599" type="line"/>
      <point x="309" y="579" type="line"/>
      <point x="122" y="545" type="line"/>
      <point x="55" y="570" type="line"/>
      <point x="55" y="600" type="line"/>
      <point x="122" y="625" type="line"/>
    </contour>
    <contour>
      <point x="123" y="624" type="line"/>
      <point x="310" y="598" type="line"/>
    </contour>
    <contour>
      <point x="123" y="624" type="move"/>
      <point x="734" y="624" type="line"/>
      <point x="799" y="598" type="line"/>
      <point x="799" y="569" type="line"/>
      <point x="734" y="545" type="line"/>
      <point x="122" y="545" type="line"/>
    </contour>
    <contour>
      <point x="651" y="389" type="line"/>
      <point x="206" y="389" type="line"/>
      <point x="206" y="488" type="line"/>
      <point x="651" y="488" type="line"/>
    </contour>
    <contour>
      <point x="536" y="0" type="line"/>
      <point x="536" y="85" type="line"/>
      <point x="790" y="83" type="line"/>
      <point x="790" y="0" type="line"/>
    </contour>
    <contour>
      <point x="705" y="115" type="line"/>
      <point x="790" y="53" type="line"/>
      <point x="535" y="53" type="line"/>
      <point x="618" y="115" type="line"/>
    </contour>
    <contour>
      <point x="55" y="0" type="line"/>
      <point x="55" y="85" type="line"/>
      <point x="319" y="85" type="line"/>
      <point x="319" y="0" type="line"/>
    </contour>
    <contour>
      <point x="236" y="115" type="line"/>
      <point x="319" y="52" type="line"/>
      <point x="66" y="52" type="line"/>
      <point x="150" y="115" type="line"/>
    </contour>
    <contour>
      <point x="236" y="93" type="line"/>
      <point x="150" y="93" type="line"/>
      <point x="150" y="657" type="line"/>
      <point x="236" y="657" type="line"/>
    </contour>
    <contour>
      <point x="319" y="750" type="line"/>
      <point x="319" y="667" type="line"/>
      <point x="55" y="667" type="line"/>
      <point x="55" y="750" type="line"/>
    </contour>
    <contour>
      <point x="150" y="637" type="line"/>
      <point x="65" y="699" type="line"/>
      <point x="319" y="699" type="line"/>
      <point x="236" y="637" type="line"/>
    </contour>
    <contour>
      <point x="704" y="92" type="line"/>
      <point x="618" y="92" type="line"/>
      <point x="618" y="655" type="line"/>
      <point x="704" y="655" type="line"/>
    </contour>
    <contour>
      <point x="800" y="750" type="line"/>
      <point x="800" y="666" type="line"/>
      <point x="536" y="666" type="line"/>
      <point x="536" y="750" type="line"/>
    </contour>
    <contour>
      <point x="619" y="635" type="line"/>
      <point x="536" y="698" type="line"/>
      <point x="790" y="698" type="line"/>
      <point x="705" y="635" type="line"/>
    </contour>
  </outline>
</glyph>
<glyph name="hbar" format="2">
  <advance width="666"/>
  <unicode hex="0127"/>
  <guideline x="128" y="239" angle="90" identifier="hbVIWYOGBg"/>
  <guideline x="174" y="695" angle="0" identifier="tYiNxTtvcY"/>
  <guideline x="54" y="669" angle="90" identifier="GdajSCDBGT"/>
  <outline>
    <contour>
      <point x="631" y="0" type="line"/>
      <point x="398" y="0" type="line"/>
      <point x="398" y="87" type="line"/>
      <point x="631" y="87" type="line"/>
    </contour>
    <contour>
      <point x="475" y="115" type="line"/>
      <point x="553" y="115" type="line"/>
      <point x="631" y="57" type="line"/>
      <point x="398" y="57" type="line"/>
    </contour>
    <contour>
      <point x="284" y="-1" type="line"/>
      <point x="45" y="-1" type="line"/>
      <point x="45" y="87" type="line"/>
      <point x="284" y="87" type="line"/>
    </contour>
    <contour>
      <point x="130" y="117" type="line"/>
      <point x="205" y="117" type="line"/>
      <point x="284" y="57" type="line"/>
      <point x="45" y="57" type="line"/>
    </contour>
    <contour>
      <point x="129" y="9" type="line"/>
      <point x="129" y="662" type="line"/>
      <point x="53" y="689" type="line"/>
      <point x="53" y="731" type="line"/>
      <point x="136" y="774" type="line"/>
      <point x="206" y="745" type="line"/>
      <point x="206" y="6" type="line"/>
    </contour>
    <contour>
      <point x="199" y="409" type="line"/>
      <point x="278" y="494" type="line"/>
      <point x="303" y="502"/>
      <point x="342" y="507"/>
      <point x="372" y="507" type="curve" smooth="yes"/>
      <point x="487" y="507"/>
      <point x="553" y="440"/>
      <point x="553" y="323" type="curve" smooth="yes"/>
      <point x="553" y="0" type="line"/>
      <point x="475" y="0" type="line"/>
      <point x="475" y="318" type="line" smooth="yes"/>
      <point x="475" y="369"/>
      <point x="421" y="405"/>
      <point x="342" y="405" type="curve" smooth="yes"/>
      <point x="264" y="405"/>
      <point x="207" y="369"/>
      <point x="207" y="318" type="curve"/>
    </contour>
    <contour>
      <point x="111" y="632" type="line"/>
    </contour>
    <contour>
      <point x="296" y="607" type="line"/>
      <point x="297" y="587" type="line"/>
      <point x="110" y="553" type="line"/>
      <point x="43" y="578" type="line"/>
      <point x="43" y="607" type="line"/>
      <point x="110" y="633" type="line"/>
    </contour>
    <contour>
      <point x="111" y="632" type="line"/>
      <point x="298" y="606" type="line"/>
    </contour>
    <contour>
      <point x="111" y="632" type="move"/>
      <point x="412" y="632" type="line"/>
      <point x="477" y="606" type="line"/>
      <point x="477" y="577" type="line"/>
      <point x="412" y="553" type="line"/>
      <point x="110" y="553" type="line"/>
    </contour>
  </outline>
</glyph>
<glyph name="dotlessi" format="2">
  <advance width="336"/>
  <unicode hex="0131"/>
  <guideline x="147" y="520" angle="90" name="center" identifier="3b5OPzAku7"/>
  <guideline x="33" y="661" angle="90" identifier="zTt8Ug2pfN"/>
  <guideline x="159" y="707" angle="0" identifier="Xis33ZnL9X"/>
  <guideline x="163" y="651" angle="0" identifier="iRdIpXgknN"/>
  <outline>
    <contour>
      <point x="286" y="-1" type="line"/>
      <point x="47" y="-1" type="line"/>
      <point x="47" y="104" type="line"/>
      <point x="286" y="104" type="line"/>
    </contour>
    <contour>
      <point x="141" y="-1" type="line"/>
      <point x="141" y="379" type="line"/>
      <point x="64" y="422" type="line"/>
      <point x="64" y="470" type="line"/>
      <point x="147" y="510" type="line"/>
      <point x="211" y="474" type="line"/>
      <point x="211" y="-1" type="line"/>
    </contour>
    <contour>
      <point x="141" y="134" type="line"/>
      <point x="211" y="134" type="line"/>
      <point x="290" y="74" type="line"/>
      <point x="56" y="74" type="line"/>
    </contour>
  </outline>
</glyph>
<glyph name="IJ" format="2">
  <advance width="404"/>
  <unicode hex="0132"/>
  <outline>
    <contour>
      <point x="158" y="119" type="line"/>
      <point x="118" y="89" type="line"/>
      <point x="75" y="89" type="line"/>
      <point x="75" y="0" type="line"/>
      <point x="329" y="0" type="line"/>
      <point x="329" y="89" type="line"/>
      <point x="285" y="89" type="line"/>
      <point x="244" y="119" type="line"/>
      <point x="244" y="631" type="line"/>
      <point x="285" y="661" type="line"/>
      <point x="329" y="661" type="line"/>
      <point x="329" y="750" type="line"/>
      <point x="75" y="750" type="line"/>
      <point x="75" y="661" type="line"/>
      <point x="118" y="661" type="line"/>
      <point x="158" y="631" type="line"/>
    </contour>
  </outline>
</glyph>
<glyph name="Lcaron" format="2">
  <advance width="676"/>
  <unicode hex="013D"/>
  <outline>
    <contour>
      <point x="616" y="73" type="line"/>
      <point x="482" y="73" type="line"/>
      <point x="573" y="209" type="line"/>
      <point x="616" y="209" type="line"/>
    </contour>
    <contour>
      <point x="235" y="103" type="line"/>
      <point x="150" y="103" type="line"/>
      <point x="150" y="657" type="line"/>
      <point x="235" y="657" type="line"/>
    </contour>
    <contour>
      <point x="150" y="637" type="line"/>
      <point x="65" y="699" type="line"/>
      <point x="319" y="699" type="line"/>
      <point x="236" y="637" type="line"/>
    </contour>
    <contour>
      <point x="235" y="93" type="line"/>
      <point x="150" y="93" type="line"/>
    </contour>
    <contour>
      <point x="616" y="0" type="line"/>
      <point x="65" y="0" type="line"/>
      <point x="65" y="84" type="line"/>
      <point x="616" y="84" type="line"/>
    </contour>
    <contour>
      <point x="150" y="113" type="line"/>
      <point x="236" y="113" type="line"/>
      <point x="319" y="51" type="line"/>
      <point x="65" y="51" type="line"/>
    </contour>
    <contour>
      <point x="319" y="666" type="line"/>
      <point x="65" y="666" type="line"/>
      <point x="63" y="750" type="line"/>
      <point x="319" y="750" type="line"/>
    </contour>
    <contour>
      <point x="450" y="669" type="line"/>
      <point x="493" y="613" type="line"/>
      <point x="545" y="623" type="line"/>
      <point x="573" y="691" type="line"/>
      <point x="524" y="746" type="line"/>
      <point x="472" y="738" type="line"/>
    </contour>
    <contour>
      <point x="545" y="623" type="line"/>
      <point x="450" y="669" type="line"/>
      <point x="395" y="495" type="line"/>
      <point x="434" y="483" type="line"/>
    </contour>
  </outline>
</glyph>
<glyph name="lcaron" format="2">
  <advance width="686"/>
  <unicode hex="013E"/>
  <outline>
    <contour>
      <point x="670" y="679" type="line"/>
      <point x="713" y="623" type="line"/>
      <point x="765" y="633" type="line"/>
      <point x="793" y="701" type="line"/>
      <point x="744" y="756" type="line"/>
      <point x="692" y="748" type="line"/>
    </contour>
    <contour>
      <point x="765" y="633" type="line"/>
      <point x="670" y="679" type="line"/>
      <point x="615" y="505" type="line"/>
      <point x="654" y="493" type="line"/>
    </contour>
    <contour>
      <point x="136" y="774" type="line"/>
    </contour>
  </outline>
</glyph>
<glyph name="Ldot" format="2">
  <advance width="676"/>
  <unicode hex="013F"/>
  <outline>
    <contour>
      <point x="616" y="73" type="line"/>
      <point x="482" y="73" type="line"/>
      <point x="573" y="209" type="line"/>
      <point x="616" y="209" type="line"/>
    </contour>
    <contour>
      <point x="235" y="103" type="line"/>
      <point x="150" y="103" type="line"/>
      <point x="150" y="657" type="line"/>
      <point x="235" y="657" type="line"/>
    </contour>
    <contour>
      <point x="150" y="637" type="line"/>
      <point x="65" y="699" type="line"/>
      <point x="319" y="699" type="line"/>
      <point x="236" y="637" type="line"/>
    </contour>
    <contour>
      <point x="235" y="93" type="line"/>
      <point x="150" y="93" type="line"/>
    </contour>
    <contour>
      <point x="616" y="0" type="line"/>
      <point x="65" y="0" type="line"/>
      <point x="65" y="84" type="line"/>
      <point x="616" y="84" type="line"/>
    </contour>
    <contour>
      <point x="150" y="113" type="line"/>
      <point x="236" y="113" type="line"/>
      <point x="319" y="51" type="line"/>
      <point x="65" y="51" type="line"/>
    </contour>
    <contour>
      <point x="319" y="666" type="line"/>
      <point x="65" y="666" type="line"/>
      <point x="63" y="750" type="line"/>
      <point x="319" y="750" type="line"/>
    </contour>
    <contour>
      <point x="500.0" y="396.0" type="line"/>
      <point x="414.0" y="441" type="line"/>
      <point x="326" y="396" type="line"/>
      <point x="326.0" y="339.0" type="line"/>
      <point x="413.0" y="294.0" type="line"/>
      <point x="500.0" y="339" type="line"/>
    </contour>
    <contour>
      <point x="414.0" y="441" type="line"/>
      <point x="501.0" y="396.0" type="line"/>
    </contour>
  </outline>
</glyph>
<glyph name="OE" format="2">
  <advance width="1519"/>
  <unicode hex="0152"/>
  <guideline x="589" y="795" angle="90" identifier="AwkeWRYSL5"/>
  <outline>
    <contour>
      <point x="381" y="763" type="curve" smooth="yes"/>
      <point x="590" y="763"/>
      <point x="719" y="618"/>
      <point x="719" y="382" type="curve"/>
      <point x="719" y="142"/>
      <point x="586" y="-14"/>
      <point x="382" y="-14" type="curve" smooth="yes"/>
      <point x="168" y="-14"/>
      <point x="45" y="130"/>
      <point x="45" y="381" type="curve"/>
      <point x="45" y="629"/>
      <point x="163" y="763"/>
    </contour>
    <contour>
      <point x="380" y="116" type="curve" smooth="yes"/>
      <point x="540" y="116"/>
      <point x="654" y="227"/>
      <point x="654" y="382" type="curve"/>
      <point x="652" y="532"/>
      <point x="542" y="634"/>
      <point x="381" y="634" type="curve" smooth="yes"/>
      <point x="221" y="634"/>
      <point x="107" y="525"/>
      <point x="107" y="370" type="curve"/>
      <point x="107" y="218"/>
      <point x="217" y="116"/>
    </contour>
    <contour>
      <point x="942" y="361" type="line"/>
      <point x="734" y="361" type="line"/>
      <point x="734" y="433" type="line"/>
      <point x="942" y="433" type="line"/>
    </contour>
    <contour>
      <point x="1122" y="77" type="line"/>
      <point x="988" y="77" type="line"/>
      <point x="1079" y="213" type="line"/>
      <point x="1122" y="213" type="line"/>
    </contour>
    <contour>
      <point x="741" y="107" type="line"/>
      <point x="656" y="107" type="line"/>
      <point x="656" y="661" type="line"/>
      <point x="741" y="661" type="line"/>
    </contour>
    <contour>
      <point x="1102" y="760" type="line"/>
      <point x="1102" y="670" type="line"/>
      <point x="589" y="670" type="line"/>
      <point x="589" y="760" type="line"/>
    </contour>
    <contour>
      <point x="654" y="623" type="line"/>
      <point x="590" y="701" type="line"/>
      <point x="825" y="703" type="line"/>
      <point x="742" y="641" type="line"/>
    </contour>
    <contour>
      <point x="1057" y="580" type="line"/>
      <point x="966" y="671" type="line"/>
      <point x="1102" y="671" type="line"/>
      <point x="1102" y="580" type="line"/>
    </contour>
    <contour>
      <point x="1010" y="311" type="line"/>
      <point x="916" y="311" type="line"/>
      <point x="916" y="485" type="line"/>
      <point x="1010" y="485" type="line"/>
    </contour>
    <contour>
      <point x="741" y="97" type="line"/>
      <point x="656" y="97" type="line"/>
    </contour>
    <contour>
      <point x="1122" y="-16" type="line"/>
      <point x="590" y="-16" type="line"/>
      <point x="590" y="92" type="line"/>
      <point x="1122" y="88" type="line"/>
    </contour>
    <contour>
      <point x="655" y="132" type="line"/>
      <point x="742" y="117" type="line"/>
      <point x="825" y="55" type="line"/>
      <point x="571" y="55" type="line"/>
    </contour>
    <contour>
      <point x="1010" y="287" type="line"/>
      <point x="916" y="287" type="line"/>
      <point x="916" y="509" type="line"/>
      <point x="1010" y="509" type="line"/>
    </contour>
  </outline>
</glyph>
<glyph name="oe" format="2">
  <advance width="932"/>
  <unicode hex="0153"/>
  <guideline x="296" y="213" angle="90" name="center" identifier="x754KQXiID"/>
  <outline>
    <contour>
      <point x="532" y="256" type="curve" smooth="yes"/>
      <point x="532" y="391"/>
      <point x="419" y="506"/>
      <point x="286" y="506" type="curve" smooth="yes"/>
      <point x="143" y="506"/>
      <point x="40" y="401"/>
      <point x="40" y="256" type="curve" smooth="yes"/>
      <point x="40" y="86"/>
      <point x="127" y="-8"/>
      <point x="285" y="-8" type="curve" smooth="yes"/>
      <point x="435" y="-8"/>
      <point x="532" y="96"/>
    </contour>
    <contour>
      <point x="466" y="247" type="curve" smooth="yes"/>
      <point x="466" y="162"/>
      <point x="391" y="101"/>
      <point x="286" y="101" type="curve" smooth="yes"/>
      <point x="181" y="101"/>
      <point x="106" y="162"/>
      <point x="106" y="247" type="curve" smooth="yes"/>
      <point x="106" y="332"/>
      <point x="181" y="393"/>
      <point x="286" y="393" type="curve" smooth="yes"/>
      <point x="391" y="393"/>
      <point x="466" y="332"/>
    </contour>
    <contour>
      <point x="510" y="219" type="line"/>
      <point x="951" y="219" type="line"/>
      <point x="951" y="282" type="line"/>
      <point x="477" y="282" type="line"/>
    </contour>
    <contour>
      <point x="951" y="261" type="line"/>
      <point x="950" y="390"/>
      <point x="839" y="506"/>
      <point x="715" y="506" type="curve" smooth="yes"/>
      <point x="578" y="506"/>
      <point x="465" y="395"/>
      <point x="465" y="260" type="curve" smooth="yes"/>
      <point x="465" y="96"/>
      <point x="562" y="-10"/>
      <point x="712" y="-10" type="curve" smooth="yes"/>
      <point x="837" y="-10"/>
      <point x="910" y="34"/>
      <point x="942" y="129" type="curve"/>
      <point x="863" y="147" type="line"/>
      <point x="835" y="111"/>
      <point x="784" y="90"/>
      <point x="726" y="90" type="curve" smooth="yes"/>
      <point x="616" y="90"/>
      <point x="531" y="160"/>
      <point x="531" y="252" type="curve" smooth="yes"/>
      <point x="531" y="336"/>
      <point x="607" y="396"/>
      <point x="714" y="396" type="curve" smooth="yes"/>
      <point x="811" y="396"/>
      <point x="879" y="346"/>
      <point x="879" y="275" type="curve"/>
    </contour>
    <contour>
      <point x="940" y="129" type="line"/>
      <point x="863" y="147" type="line"/>
    </contour>
  </outline>
</glyph>
<glyph name="tcaron" format="2">
  <advance width="503"/>
  <unicode hex="0165"/>
  <guideline x="564" y="478" angle="0" identifier="XPEeTgmQyX"/>
  <guideline x="534" y="381" angle="0" identifier="6Cp1bsRV09"/>
  <outline>
    <contour>
      <point x="191" y="231" type="line"/>
      <point x="191" y="144"/>
      <point x="226" y="100"/>
      <point x="295" y="100" type="curve" smooth="yes"/>
      <point x="297" y="100"/>
      <point x="299" y="100"/>
      <point x="301" y="100" type="curve" smooth="yes"/>
      <point x="360" y="100"/>
      <point x="397" y="147"/>
      <point x="397" y="221" type="curve"/>
      <point x="462" y="221" type="line"/>
      <point x="462" y="98"/>
      <point x="389" y="-8"/>
      <point x="304" y="-8" type="curve" smooth="yes"/>
      <point x="176" y="-8"/>
      <point x="110" y="69"/>
      <point x="110" y="220" type="curve"/>
    </contour>
    <contour>
      <point x="111" y="220" type="line"/>
      <point x="111" y="664" type="line"/>
      <point x="191" y="664" type="line"/>
      <point x="191" y="220" type="line"/>
    </contour>
    <contour>
      <point x="439" y="381" type="line"/>
      <point x="21" y="381" type="line"/>
      <point x="21" y="478" type="line"/>
      <point x="439" y="478" type="line"/>
    </contour>
    <contour>
      <point x="350" y="689" type="line"/>
      <point x="393" y="633" type="line"/>
      <point x="445" y="643" type="line"/>
      <point x="473" y="711" type="line"/>
      <point x="424" y="766" type="line"/>
      <point x="372" y="758" type="line"/>
    </contour>
    <contour>
      <point x="445" y="643" type="line"/>
      <point x="350" y="689" type="line"/>
      <point x="295" y="515" type="line"/>
      <point x="334" y="503" type="line"/>
    </contour>
  </outline>
</glyph>
<glyph name="Tbar" format="2">
  <advance width="503"/>
  <unicode hex="0166"/>
  <guideline x="327" y="637" angle="0" identifier="WewOMCrIy6"/>
  <outline>
    <contour>
      <point x="99" y="424" type="line"/>
    </contour>
    <contour>
      <point x="284" y="399" type="line"/>
      <point x="98" y="425" type="line"/>
      <point x="31" y="399" type="line"/>
      <point x="31" y="370" type="line"/>
      <point x="98" y="345" type="line"/>
      <point x="285" y="379" type="line"/>
    </contour>
    <contour>
      <point x="99" y="424" type="line"/>
      <point x="286" y="398" type="line"/>
    </contour>
    <contour>
      <point x="98" y="345" type="move"/>
      <point x="400" y="345" type="line"/>
      <point x="465" y="369" type="line"/>
      <point x="465" y="398" type="line"/>
      <point x="400" y="424" type="line"/>
      <point x="99" y="424" type="line"/>
    </contour>
    <contour>
      <point x="210" y="125" type="line"/>
      <point x="151" y="80" type="line"/>
      <point x="92" y="80" type="line"/>
      <point x="92" y="0" type="line"/>
      <point x="411" y="0" type="line"/>
      <point x="411" y="85" type="line"/>
      <point x="352" y="85" type="line"/>
      <point x="296" y="125" type="line"/>
      <point x="296" y="637" type="line"/>
      <point x="340" y="666" type="line"/>
      <point x="451" y="666" type="line"/>
      <point x="534" y="542" type="line"/>
      <point x="573" y="542" type="line"/>
      <point x="573" y="750" type="line"/>
      <point x="-60" y="750" type="line"/>
      <point x="-60" y="544" type="line"/>
      <point x="-21" y="544" type="line"/>
      <point x="62" y="666" type="line"/>
      <point x="171" y="666" type="line"/>
      <point x="210" y="637" type="line"/>
    </contour>
  </outline>
</glyph>
<glyph name="tbar" format="2">
  <advance width="503"/>
  <unicode hex="0167"/>
  <guideline x="564" y="478" angle="0" identifier="XPEeTgmQyX"/>
  <guideline x="534" y="381" angle="0" identifier="6Cp1bsRV09"/>
  <guideline x="128" y="239" angle="90" identifier="KXt5L1O6DA"/>
  <guideline x="174" y="695" angle="0" identifier="FdyBfiLVRH"/>
  <outline>
    <contour>
      <point x="191" y="231" type="line"/>
      <point x="191" y="144"/>
      <point x="226" y="100"/>
      <point x="295" y="100" type="curve" smooth="yes"/>
      <point x="297" y="100"/>
      <point x="299" y="100"/>
      <point x="301" y="100" type="curve" smooth="yes"/>
      <point x="360" y="100"/>
      <point x="397" y="147"/>
      <point x="397" y="221" type="curve"/>
      <point x="462" y="221" type="line"/>
      <point x="462" y="98"/>
      <point x="389" y="-8"/>
      <point x="304" y="-8" type="curve" smooth="yes"/>
      <point x="176" y="-8"/>
      <point x="110" y="69"/>
      <point x="110" y="220" type="curve"/>
    </contour>
    <contour>
      <point x="111" y="220" type="line"/>
      <point x="111" y="664" type="line"/>
      <point x="191" y="664" type="line"/>
      <point x="191" y="220" type="line"/>
    </contour>
    <contour>
      <point x="439" y="381" type="line"/>
      <point x="21" y="381" type="line"/>
      <point x="21" y="478" type="line"/>
      <point x="439" y="478" type="line"/>
    </contour>
    <contour>
      <point x="82" y="342" type="line"/>
    </contour>
    <contour>
      <point x="267" y="317" type="line"/>
      <point x="268" y="297" type="line"/>
      <point x="81" y="263" type="line"/>
      <point x="14" y="288" type="line"/>
      <point x="14" y="317" type="line"/>
      <point x="81" y="343" type="line"/>
    </contour>
    <contour>
      <point x="82" y="342" type="line"/>
      <point x="269" y="316" type="line"/>
    </contour>
    <contour>
      <point x="82" y="342" type="move"/>
      <point x="383" y="342" type="line"/>
      <point x="448" y="316" type="line"/>
      <point x="448" y="287" type="line"/>
      <point x="383" y="263" type="line"/>
      <point x="81" y="263" type="line"/>
    </contour>
  </outline>
</glyph>
<glyph name="AEacute" format="2">
  <advance width="950"/>
  <unicode hex="01FC"/>
  <guideline x="462" y="429" angle="0" identifier="zCy8GelJ3I"/>
  <guideline x="466" y="357" angle="0" identifier="Rcb1OaZVxK"/>
  <outline>
    <contour>
      <point x="710" y="357" type="line"/>
      <point x="502" y="357" type="line"/>
      <point x="502" y="429" type="line"/>
      <point x="710" y="429" type="line"/>
    </contour>
    <contour>
      <point x="890" y="73" type="line"/>
      <point x="756" y="73" type="line"/>
      <point x="847" y="209" type="line"/>
      <point x="890" y="209" type="line"/>
    </contour>
    <contour>
      <point x="509" y="103" type="line"/>
      <point x="424" y="103" type="line"/>
      <point x="424" y="657" type="line"/>
      <point x="509" y="657" type="line"/>
    </contour>
    <contour>
      <point x="870" y="750" type="line"/>
      <point x="870" y="666" type="line"/>
      <point x="439" y="666" type="line"/>
      <point x="439" y="750" type="line"/>
    </contour>
    <contour>
      <point x="424" y="637" type="line"/>
      <point x="424" y="699" type="line"/>
      <point x="593" y="699" type="line"/>
      <point x="510" y="637" type="line"/>
    </contour>
    <contour>
      <point x="825" y="576" type="line"/>
      <point x="734" y="667" type="line"/>
      <point x="870" y="667" type="line"/>
      <point x="870" y="576" type="line"/>
    </contour>
    <contour>
      <point x="778" y="307" type="line"/>
      <point x="684" y="307" type="line"/>
      <point x="684" y="481" type="line"/>
      <point x="778" y="481" type="line"/>
    </contour>
    <contour>
      <point x="509" y="93" type="line"/>
      <point x="424" y="93" type="line"/>
    </contour>
    <contour>
      <point x="890" y="0" type="line"/>
      <point x="339" y="0" type="line"/>
      <point x="339" y="84" type="line"/>
      <point x="890" y="84" type="line"/>
    </contour>
    <contour>
      <point x="424" y="113" type="line"/>
      <point x="510" y="113" type="line"/>
      <point x="593" y="51" type="line"/>
      <point x="339" y="51" type="line"/>
    </contour>
    <contour>
      <point x="778" y="283" type="line"/>
      <point x="684" y="283" type="line"/>
      <point x="684" y="505" type="line"/>
      <point x="778" y="505" type="line"/>
    </contour>
    <contour>
      <point x="512" y="690" type="line"/>
    </contour>
    <contour>
      <point x="531" y="750" type="line"/>
      <point x="531" y="668" type="line"/>
      <point x="233" y="668" type="line"/>
      <point x="233" y="750" type="line"/>
    </contour>
    <contour>
      <point x="428" y="658" type="line"/>
      <point x="327" y="658" type="line"/>
      <point x="259" y="429" type="line"/>
      <point x="429" y="429" type="line"/>
      <point x="429" y="357" type="line"/>
      <point x="240" y="357" type="line"/>
      <point x="175" y="120" type="line"/>
      <point x="205" y="84" type="line"/>
      <point x="269" y="84" type="line"/>
      <point x="269" y="-1" type="line"/>
      <point x="35" y="-1" type="line"/>
      <point x="35" y="84" type="line"/>
      <point x="60" y="84" type="line"/>
      <point x="87" y="117" type="line"/>
      <point x="255" y="645" type="line"/>
      <point x="288" y="744" type="line"/>
      <point x="424" y="744" type="line"/>
    </contour>
    <component base="acute" xOffset="340" yOffset="242"/>
  </outline>
</glyph>
<glyph name="dotlessj" format="2">
  <advance width="296"/>
  <unicode hex="0237"/>
  <guideline x="154" y="528" angle="90" name="center" identifier="bBQbhvIHA7"/>
  <outline>
    <contour>
      <point x="147" y="-31" type="line"/>
      <point x="147" y="379" type="line"/>
      <point x="147" y="422" type="line"/>
      <point x="147" y="470" type="line"/>
      <point x="147" y="510" type="line"/>
      <point x="227" y="474" type="line"/>
      <point x="227" y="-31" type="line"/>
    </contour>
    <contour>
      <point x="147" y="-31" type="line"/>
      <point x="147" y="-107"/>
      <point x="94" y="-150"/>
      <point x="1" y="-150" type="curve" smooth="yes"/>
      <point x="-27" y="-150"/>
      <point x="-51" y="-143"/>
      <point x="-71" y="-130" type="curve"/>
      <point x="-85" y="-240" type="line"/>
      <point x="-61" y="-252"/>
      <point x="-29" y="-259"/>
      <point x="-4" y="-259" type="curve"/>
      <point x="132" y="-259"/>
      <point x="227" y="-165"/>
      <point x="227" y="-31" type="curve"/>
    </contour>
    <contour>
      <point x="224" y="475" type="line"/>
      <point x="224" y="9" type="line"/>
      <point x="147" y="9" type="line"/>
    </contour>
    <contour>
      <point x="-70" y="-126" type="line"/>
      <point x="-84" y="-241" type="line"/>
    </contour>
  </outline>
</glyph>
<glyph name="schwa" format="2">
  <advance width="576"/>
  <unicode hex="0259"/>
  <outline>
    <contour>
      <point x="486" y="277" type="line"/>
      <point x="45" y="277" type="line"/>
      <point x="45" y="214" type="line"/>
      <point x="519" y="214" type="line"/>
    </contour>
    <contour>
      <point x="45" y="235" type="line"/>
      <point x="46" y="106"/>
      <point x="157" y="-10"/>
      <point x="281" y="-10" type="curve" smooth="yes"/>
      <point x="418" y="-10"/>
      <point x="531" y="101"/>
      <point x="531" y="236" type="curve" smooth="yes"/>
      <point x="531" y="400"/>
      <point x="434" y="506"/>
      <point x="284" y="506" type="curve" smooth="yes"/>
      <point x="159" y="506"/>
      <point x="86" y="462"/>
      <point x="54" y="367" type="curve"/>
      <point x="133" y="349" type="line"/>
      <point x="161" y="385"/>
      <point x="212" y="406"/>
      <point x="270" y="406" type="curve" smooth="yes"/>
      <point x="380" y="406"/>
      <point x="465" y="336"/>
      <point x="465" y="244" type="curve" smooth="yes"/>
      <point x="465" y="160"/>
      <point x="389" y="100"/>
      <point x="282" y="100" type="curve" smooth="yes"/>
      <point x="185" y="100"/>
      <point x="117" y="150"/>
      <point x="117" y="221" type="curve"/>
    </contour>
    <contour>
      <point x="56" y="367" type="line"/>
      <point x="133" y="349" type="line"/>
    </contour>
  </outline>
</glyph>
<glyph name="circumflex" format="2">
  <unicode hex="02C6"/>
  <guideline x="307" y="622" angle="90" identifier="oRr2mTXj0w"/>
  <outline>
    <contour>
      <point x="307" y="682" type="line"/>
      <point x="488" y="628" type="line"/>
      <point x="512" y="659" type="line"/>
      <point x="400" y="751" type="line"/>
      <point x="307" y="797" type="line"/>
      <point x="214" y="751" type="line"/>
      <point x="102" y="659" type="line"/>
      <point x="126" y="628" type="line"/>
    </contour>
  </outline>
</glyph>
<glyph name="caron" format="2">
  <unicode hex="02C7"/>
  <guideline x="303" y="561" angle="90" name="center" identifier="oRr2mTXj0w"/>
  <outline>
    <contour>
      <point x="307" y="743" type="line"/>
      <point x="126" y="797" type="line"/>
      <point x="102" y="766" type="line"/>
      <point x="214" y="674" type="line"/>
      <point x="307" y="628" type="line"/>
      <point x="400" y="674" type="line"/>
      <point x="512" y="766" type="line"/>
      <point x="488" y="797" type="line"/>
    </contour>
  </outline>
</glyph>
<glyph name="breve" format="2">
  <advance width="336"/>
  <unicode hex="02D8"/>
  <outline>
    <contour>
      <point x="-56" y="751.0" type="line"/>
      <point x="-56" y="657.0"/>
      <point x="35" y="589.0"/>
      <point x="164" y="589.0" type="curve" smooth="yes"/>
      <point x="311.0" y="589.0"/>
      <point x="392" y="647.0"/>
      <point x="392" y="750.0" type="curve"/>
      <point x="299" y="750.0" type="line"/>
      <point x="299" y="682.0"/>
      <point x="244" y="633.0"/>
      <point x="170" y="633.0" type="curve" smooth="yes"/>
      <point x="97" y="633.0"/>
      <point x="44" y="682.0"/>
      <point x="44" y="751.0" type="curve"/>
    </contour>
  </outline>
</glyph>
<glyph name="dotaccent" format="2">
  <unicode hex="02D9"/>
  <outline>
    <contour>
      <point x="240.0" y="706.0" type="line"/>
      <point x="154.0" y="751" type="line"/>
      <point x="66" y="706" type="line"/>
      <point x="66.0" y="649.0" type="line"/>
      <point x="153.0" y="604.0" type="line"/>
      <point x="240.0" y="649" type="line"/>
    </contour>
    <contour>
      <point x="154.0" y="751" type="line"/>
      <point x="241.0" y="706.0" type="line"/>
    </contour>
  </outline>
</glyph>
<glyph name="ring" format="2">
  <advance width="572"/>
  <unicode hex="02DA"/>
  <outline>
    <contour>
      <point x="395.0" y="663" type="curve" smooth="yes"/>
      <point x="395.0" y="723.0"/>
      <point x="346" y="772.0"/>
      <point x="286.0" y="772.0" type="curve" smooth="yes"/>
      <point x="222" y="772.0"/>
      <point x="177.0" y="728"/>
      <point x="177.0" y="663" type="curve" smooth="yes"/>
      <point x="177.0" y="588.0"/>
      <point x="216.0" y="546.0"/>
      <point x="286" y="546.0" type="curve" smooth="yes"/>
      <point x="354" y="546.0"/>
      <point x="395.0" y="591"/>
    </contour>
    <contour>
      <point x="362.0" y="658.0" type="curve" smooth="yes"/>
      <point x="362.0" y="623"/>
      <point x="332" y="592.0"/>
      <point x="286.0" y="592.0" type="curve" smooth="yes"/>
      <point x="241" y="592.0"/>
      <point x="210.0" y="623"/>
      <point x="210.0" y="658.0" type="curve" smooth="yes"/>
      <point x="210.0" y="694"/>
      <point x="241" y="724.0"/>
      <point x="286.0" y="724.0" type="curve" smooth="yes"/>
      <point x="332" y="724.0"/>
      <point x="362.0" y="694"/>
    </contour>
  </outline>
</glyph>
<glyph name="tilde" format="2">
  <advance width="600"/>
  <unicode hex="02DC"/>
  <guideline x="151" y="604" angle="90" identifier="3b5OPzAku7"/>
  <guideline x="33" y="661" angle="90" identifier="zTt8Ug2pfN"/>
  <guideline x="159" y="707" angle="0" identifier="Xis33ZnL9X"/>
  <guideline x="163" y="651" angle="0" identifier="iRdIpXgknN"/>
  <guideline x="355" y="519" angle="90" identifier="tLkfAwrWBN"/>
  <guideline x="357" y="706" angle="90" name="centera" identifier="CAq7nMxH7G"/>
  <outline>
    <contour>
      <point x="378" y="475" type="line"/>
      <point x="288" y="537" type="line"/>
      <point x="210" y="573" type="line"/>
      <point x="143" y="517" type="line"/>
      <point x="60" y="423" type="line"/>
      <point x="78" y="402" type="line"/>
      <point x="223" y="468" type="line"/>
      <point x="313" y="406" type="line"/>
      <point x="391" y="370" type="line"/>
      <point x="458" y="428" type="line"/>
      <point x="542" y="520" type="line"/>
      <point x="524" y="541" type="line"/>
    </contour>
  </outline>
</glyph>
<glyph name="hungarumlaut" format="2">
  <unicode hex="02DD"/>
  <outline>
    <contour>
      <point x="240" y="759" type="line"/>
      <point x="245" y="687" type="line"/>
      <point x="293" y="667" type="line"/>
      <point x="355" y="707" type="line"/>
      <point x="344" y="780" type="line"/>
      <point x="297" y="802" type="line"/>
    </contour>
    <contour>
      <point x="293" y="667" type="line"/>
      <point x="240" y="759" type="line"/>
      <point x="98" y="644" type="line"/>
      <point x="122" y="613" type="line"/>
    </contour>
    <contour>
      <point x="460" y="759" type="line"/>
      <point x="465" y="687" type="line"/>
      <point x="513" y="667" type="line"/>
      <point x="575" y="707" type="line"/>
      <point x="564" y="780" type="line"/>
      <point x="517" y="802" type="line"/>
    </contour>
    <contour>
      <point x="513" y="667" type="line"/>
      <point x="460" y="759" type="line"/>
      <point x="318" y="644" type="line"/>
      <point x="342" y="613" type="line"/>
    </contour>
  </outline>
</glyph>
<glyph name="pi" format="2">
  <advance width="732"/>
  <unicode hex="03C0"/>
  <guideline x="151" y="604" angle="90" identifier="Y09JzYiuQW"/>
  <guideline x="33" y="661" angle="90" identifier="7QO5M40PUb"/>
  <guideline x="159" y="707" angle="0" identifier="YaLqVacms0"/>
  <guideline x="163" y="651" angle="0" identifier="RwKYF0lK3I"/>
  <outline>
    <contour>
      <point x="191" y="497" type="line"/>
    </contour>
    <contour>
      <point x="374" y="467" type="line"/>
      <point x="189" y="498" type="line"/>
      <point x="112" y="467" type="line"/>
      <point x="112" y="434" type="line"/>
      <point x="189" y="406" type="line"/>
      <point x="375" y="445" type="line"/>
    </contour>
    <contour>
      <point x="191" y="497" type="line"/>
      <point x="376" y="467" type="line"/>
    </contour>
    <contour>
      <point x="189" y="406" type="move"/>
      <point x="587" y="406" type="line"/>
      <point x="662" y="433" type="line"/>
      <point x="662" y="467" type="line"/>
      <point x="587" y="497" type="line"/>
      <point x="191" y="497" type="line"/>
    </contour>
    <contour>
      <point x="322" y="-2" type="line"/>
      <point x="136" y="-2" type="line"/>
      <point x="136" y="79" type="line"/>
      <point x="322" y="79" type="line"/>
    </contour>
    <contour>
      <point x="189" y="113" type="line"/>
      <point x="270" y="113" type="line"/>
      <point x="327" y="44" type="line"/>
      <point x="137" y="44" type="line"/>
    </contour>
    <contour>
      <point x="223" y="411" type="line"/>
    </contour>
    <contour>
      <point x="189" y="-2" type="line"/>
      <point x="189" y="406" type="line"/>
      <point x="270" y="406" type="line"/>
      <point x="270" y="-2" type="line"/>
    </contour>
    <contour>
      <point x="639" y="-2" type="line"/>
      <point x="454" y="-2" type="line"/>
      <point x="454" y="79" type="line"/>
      <point x="639" y="79" type="line"/>
    </contour>
    <contour>
      <point x="506" y="113" type="line"/>
      <point x="587" y="113" type="line"/>
      <point x="643" y="44" type="line"/>
      <point x="455" y="44" type="line"/>
    </contour>
    <contour>
      <point x="506" y="-2" type="line"/>
      <point x="506" y="406" type="line"/>
      <point x="587" y="406" type="line"/>
      <point x="587" y="-2" type="line"/>
    </contour>
  </outline>
</glyph>
<glyph name="quoteright" format="2">
  <advance width="234"/>
  <unicode hex="2019"/>
  <outline>
    <contour>
      <point x="70" y="749" type="line"/>
      <point x="113" y="693" type="line"/>
      <point x="165" y="703" type="line"/>
      <point x="193" y="771" type="line"/>
      <point x="144" y="826" type="line"/>
      <point x="92" y="818" type="line"/>
    </contour>
    <contour>
      <point x="165" y="703" type="line"/>
      <point x="70" y="749" type="line"/>
      <point x="15" y="575" type="line"/>
      <point x="54" y="563" type="line"/>
    </contour>
  </outline>
</glyph>
<glyph name="quotesinglbase" format="2">
  <advance width="136"/>
  <unicode hex="201A"/>
  <outline>
    <contour>
      <point x="20" y="0" type="line"/>
      <point x="20" y="-32" type="line"/>
      <point x="67" y="-59" type="line"/>
      <point x="116" y="-32" type="line"/>
      <point x="116" y="0" type="line"/>
      <point x="96" y="140" type="line"/>
      <point x="40" y="140" type="line"/>
    </contour>
  </outline>
</glyph>
<glyph name="quotedblbase" format="2">
  <advance width="266"/>
  <unicode hex="201E"/>
  <outline>
    <contour>
      <point x="67" y="22" type="line"/>
      <point x="20" y="0" type="line"/>
    </contour>
    <contour>
      <point x="116" y="0" type="line"/>
      <point x="68" y="22" type="line"/>
      <point x="20" y="0" type="line"/>
      <point x="20" y="-32" type="line"/>
      <point x="67" y="-59" type="line"/>
      <point x="116" y="-32" type="line"/>
    </contour>
    <contour>
      <point x="20" y="0" type="line"/>
      <point x="116" y="0" type="line"/>
      <point x="96" y="140" type="line"/>
      <point x="40" y="140" type="line"/>
    </contour>
    <contour>
      <point x="197" y="22" type="line"/>
      <point x="150" y="0" type="line"/>
    </contour>
    <contour>
      <point x="246" y="0" type="line"/>
      <point x="198" y="22" type="line"/>
      <point x="150" y="0" type="line"/>
      <point x="150" y="-32" type="line"/>
      <point x="197" y="-59" type="line"/>
      <point x="246" y="-32" type="line"/>
    </contour>
    <contour>
      <point x="150" y="0" type="line"/>
      <point x="246" y="0" type="line"/>
      <point x="226" y="140" type="line"/>
      <point x="170" y="140" type="line"/>
    </contour>
  </outline>
</glyph>
<glyph name="daggerdbl" format="2">
  <advance width="732"/>
  <unicode hex="2021"/>
  <guideline x="128" y="239" angle="90" identifier="CqlsHIqkRR"/>
  <guideline x="174" y="695" angle="0" identifier="0IeumuOcrQ"/>
  <outline>
    <contour>
      <point x="207" y="247" type="line"/>
    </contour>
    <contour>
      <point x="392" y="222" type="line"/>
      <point x="206" y="248" type="line"/>
      <point x="139" y="222" type="line"/>
      <point x="139" y="193" type="line"/>
      <point x="206" y="168" type="line"/>
      <point x="393" y="202" type="line"/>
    </contour>
    <contour>
      <point x="207" y="247" type="line"/>
      <point x="394" y="221" type="line"/>
    </contour>
    <contour>
      <point x="206" y="168" type="move"/>
      <point x="508" y="168" type="line"/>
      <point x="573" y="192" type="line"/>
      <point x="573" y="221" type="line"/>
      <point x="508" y="247" type="line"/>
      <point x="207" y="247" type="line"/>
    </contour>
    <contour>
      <point x="207" y="424" type="line"/>
    </contour>
    <contour>
      <point x="392" y="399" type="line"/>
      <point x="206" y="425" type="line"/>
      <point x="139" y="399" type="line"/>
      <point x="139" y="370" type="line"/>
      <point x="206" y="345" type="line"/>
      <point x="393" y="379" type="line"/>
    </contour>
    <contour>
      <point x="207" y="424" type="line"/>
      <point x="394" y="398" type="line"/>
    </contour>
    <contour>
      <point x="206" y="345" type="move"/>
      <point x="508" y="345" type="line"/>
      <point x="573" y="369" type="line"/>
      <point x="573" y="398" type="line"/>
      <point x="508" y="424" type="line"/>
      <point x="207" y="424" type="line"/>
    </contour>
  </outline>
</glyph>
<glyph name="bullet" format="2">
  <advance width="313"/>
  <unicode hex="2022"/>
  <outline>
    <contour>
      <point x="286" y="369" type="line"/>
      <point x="158.0" y="435" type="line"/>
      <point x="28" y="369" type="line"/>
      <point x="28" y="286" type="line"/>
      <point x="157" y="220" type="line"/>
      <point x="286" y="286" type="line"/>
    </contour>
    <contour>
      <point x="158.0" y="435" type="line"/>
      <point x="287" y="369" type="line"/>
    </contour>
  </outline>
</glyph>
<glyph name="ellipsis" format="2">
  <advance width="788"/>
  <unicode hex="2026"/>
  <guideline x="601" y="137" angle="0" identifier="rHt6XXQMQj"/>
  <outline>
    <contour>
      <point x="242" y="89" type="line"/>
      <point x="147" y="138" type="line"/>
      <point x="50" y="89" type="line"/>
      <point x="50" y="26" type="line"/>
      <point x="146" y="-23" type="line"/>
      <point x="242" y="26" type="line"/>
    </contour>
    <contour>
      <point x="147" y="138" type="line"/>
      <point x="243" y="89" type="line"/>
    </contour>
    <contour>
      <point x="748" y="90" type="line"/>
      <point x="653" y="139" type="line"/>
      <point x="556" y="90" type="line"/>
      <point x="556" y="27" type="line"/>
      <point x="652" y="-22" type="line"/>
      <point x="748" y="27" type="line"/>
    </contour>
    <contour>
      <point x="653" y="139" type="line"/>
      <point x="749" y="90" type="line"/>
    </contour>
    <contour>
      <point x="491" y="89" type="line"/>
      <point x="396" y="138" type="line"/>
      <point x="299" y="89" type="line"/>
      <point x="299" y="26" type="line"/>
      <point x="395" y="-23" type="line"/>
      <point x="491" y="26" type="line"/>
    </contour>
    <contour>
      <point x="396" y="138" type="line"/>
      <point x="492" y="89" type="line"/>
    </contour>
  </outline>
</glyph>
<glyph name="approxequal" format="2">
  <advance width="669"/>
  <unicode hex="2248"/>
  <guideline x="151" y="604" angle="90" identifier="3b5OPzAku7"/>
  <guideline x="33" y="661" angle="90" identifier="zTt8Ug2pfN"/>
  <guideline x="159" y="707" angle="0" identifier="Xis33ZnL9X"/>
  <guideline x="84" y="649" angle="0" identifier="iRdIpXgknN"/>
  <guideline x="358" y="552" angle="90" identifier="tLkfAwrWBN"/>
  <guideline x="357" y="706" angle="90" identifier="CAq7nMxH7G"/>
  <guideline x="151" y="604" angle="90" identifier="93AK7VfA3E"/>
  <guideline x="33" y="661" angle="90" identifier="Wg24OXu1G8"/>
  <guideline x="159" y="707" angle="0" identifier="xfbX8b3TZy"/>
  <guideline x="84" y="649" angle="0" identifier="J21URR2dAi"/>
  <guideline x="358" y="552" angle="90" identifier="NmYbyYhS4M"/>
  <guideline x="357" y="706" angle="90" identifier="8nFNjMGGTM"/>
  <outline>
    <contour>
      <point x="437" y="186" type="line"/>
      <point x="317" y="266" type="line"/>
      <point x="219" y="302" type="line"/>
      <point x="132" y="247" type="line"/>
      <point x="30" y="144" type="line"/>
      <point x="57" y="115" type="line"/>
      <point x="232" y="189" type="line"/>
      <point x="352" y="109" type="line"/>
      <point x="450" y="73" type="line"/>
      <point x="537" y="128" type="line"/>
      <point x="639" y="231" type="line"/>
      <point x="612" y="260" type="line"/>
    </contour>
    <contour>
      <point x="437" y="366" type="line"/>
      <point x="317" y="446" type="line"/>
      <point x="219" y="482" type="line"/>
      <point x="132" y="427" type="line"/>
      <point x="30" y="324" type="line"/>
      <point x="57" y="295" type="line"/>
      <point x="232" y="369" type="line"/>
      <point x="352" y="289" type="line"/>
      <point x="450" y="253" type="line"/>
      <point x="537" y="308" type="line"/>
      <point x="639" y="411" type="line"/>
      <point x="612" y="440" type="line"/>
    </contour>
  </outline>
</glyph>
<glyph name="notequal" format="2">
  <advance width="732"/>
  <unicode hex="2260"/>
  <guideline x="128" y="239" angle="90" identifier="CqlsHIqkRR"/>
  <guideline x="174" y="695" angle="0" identifier="0IeumuOcrQ"/>
  <outline>
    <contour>
      <point x="207" y="424" type="line"/>
    </contour>
    <contour>
      <point x="392" y="399" type="line"/>
      <point x="206" y="425" type="line"/>
      <point x="139" y="399" type="line"/>
      <point x="139" y="350" type="line"/>
      <point x="206" y="325" type="line"/>
      <point x="393" y="359" type="line"/>
    </contour>
    <contour>
      <point x="207" y="424" type="line"/>
      <point x="394" y="398" type="line"/>
    </contour>
    <contour>
      <point x="206" y="325" type="move"/>
      <point x="508" y="325" type="line"/>
      <point x="573" y="349" type="line"/>
      <point x="573" y="398" type="line"/>
      <point x="508" y="424" type="line"/>
      <point x="207" y="424" type="line"/>
    </contour>
    <contour>
      <point x="207" y="251" type="line"/>
    </contour>
    <contour>
      <point x="392" y="226" type="line"/>
      <point x="206" y="252" type="line"/>
      <point x="139" y="226" type="line"/>
      <point x="139" y="177" type="line"/>
      <point x="206" y="152" type="line"/>
      <point x="393" y="186" type="line"/>
    </contour>
    <contour>
      <point x="207" y="251" type="line"/>
      <point x="394" y="225" type="line"/>
    </contour>
    <contour>
      <point x="206" y="152" type="move"/>
      <point x="508" y="152" type="line"/>
      <point x="573" y="176" type="line"/>
      <point x="573" y="225" type="line"/>
      <point x="508" y="251" type="line"/>
      <point x="207" y="251" type="line"/>
    </contour>
    <contour>
      <point x="207" y="251" type="line"/>
    </contour>
    <contour>
      <point x="392" y="226" type="line"/>
      <point x="206" y="252" type="line"/>
      <point x="139" y="226" type="line"/>
      <point x="139" y="177" type="line"/>
      <point x="206" y="152" type="line"/>
      <point x="393" y="186" type="line"/>
    </contour>
    <contour>
      <point x="207" y="251" type="line"/>
      <point x="394" y="225" type="line"/>
    </contour>
    <contour>
      <point x="206" y="152" type="move"/>
      <point x="508" y="152" type="line"/>
      <point x="573" y="176" type="line"/>
      <point x="573" y="225" type="line"/>
      <point x="508" y="251" type="line"/>
      <point x="207" y="251" type="line"/>
    </contour>
    <contour>
      <point x="427" y="622" type="line"/>
      <point x="193" y="-62" type="line"/>
      <point x="290" y="-62" type="line"/>
      <point x="524" y="622" type="line"/>
    </contour>
  </outline>
</glyph>
<glyph name="lessequal" format="2">
  <advance width="629"/>
  <unicode hex="2264"/>
  <guideline x="453" y="168" angle="90" identifier="1juzta1qb7"/>
  <outline>
    <contour>
      <point x="454" y="20" type="line"/>
      <point x="454" y="107" type="line"/>
      <point x="187" y="236" type="line"/>
      <point x="187" y="247" type="line"/>
      <point x="187" y="257" type="line"/>
      <point x="454" y="386" type="line"/>
      <point x="454" y="473" type="line"/>
      <point x="65" y="297" type="line"/>
      <point x="65" y="196" type="line"/>
    </contour>
    <contour>
      <point x="382" y="1" type="line"/>
    </contour>
    <contour>
      <point x="197" y="-24" type="line"/>
      <point x="196" y="-54" type="line"/>
      <point x="383" y="-88" type="line"/>
      <point x="450" y="-63" type="line"/>
      <point x="450" y="-24" type="line"/>
      <point x="383" y="2" type="line"/>
    </contour>
    <contour>
      <point x="382" y="1" type="line"/>
      <point x="195" y="-25" type="line"/>
    </contour>
    <contour>
      <point x="382" y="1" type="move"/>
      <point x="151" y="1" type="line"/>
      <point x="86" y="-25" type="line"/>
      <point x="86" y="-64" type="line"/>
      <point x="151" y="-88" type="line"/>
      <point x="383" y="-88" type="line"/>
    </contour>
    <contour>
      <point x="382" y="1" type="line"/>
    </contour>
    <contour>
      <point x="197" y="-24" type="line"/>
      <point x="196" y="-54" type="line"/>
      <point x="383" y="-88" type="line"/>
      <point x="450" y="-63" type="line"/>
      <point x="450" y="-24" type="line"/>
      <point x="383" y="2" type="line"/>
    </contour>
    <contour>
      <point x="382" y="1" type="line"/>
      <point x="195" y="-25" type="line"/>
    </contour>
    <contour>
      <point x="382" y="1" type="move"/>
      <point x="151" y="1" type="line"/>
      <point x="86" y="-25" type="line"/>
      <point x="86" y="-64" type="line"/>
      <point x="151" y="-88" type="line"/>
      <point x="383" y="-88" type="line"/>
    </contour>
  </outline>
</glyph>
<glyph name="greaterequal" format="2">
  <advance width="629"/>
  <unicode hex="2265"/>
  <guideline x="453" y="168" angle="90" identifier="1juzta1qb7"/>
  <outline>
    <contour>
      <point x="65" y="20" type="line"/>
      <point x="454" y="196" type="line"/>
      <point x="454" y="297" type="line"/>
      <point x="65" y="473" type="line"/>
      <point x="65" y="386" type="line"/>
      <point x="332" y="257" type="line"/>
      <point x="332" y="247" type="line"/>
      <point x="332" y="236" type="line"/>
      <point x="65" y="107" type="line"/>
    </contour>
    <contour>
      <point x="137" y="1" type="line"/>
    </contour>
    <contour>
      <point x="322" y="-24" type="line"/>
      <point x="136" y="2" type="line"/>
      <point x="69" y="-24" type="line"/>
      <point x="69" y="-63" type="line"/>
      <point x="136" y="-88" type="line"/>
      <point x="323" y="-54" type="line"/>
    </contour>
    <contour>
      <point x="137" y="1" type="line"/>
      <point x="324" y="-25" type="line"/>
    </contour>
    <contour>
      <point x="136" y="-88" type="move"/>
      <point x="368" y="-88" type="line"/>
      <point x="433" y="-64" type="line"/>
      <point x="433" y="-25" type="line"/>
      <point x="368" y="1" type="line"/>
      <point x="137" y="1" type="line"/>
    </contour>
    <contour>
      <point x="137" y="1" type="line"/>
    </contour>
    <contour>
      <point x="322" y="-24" type="line"/>
      <point x="136" y="2" type="line"/>
      <point x="69" y="-24" type="line"/>
      <point x="69" y="-63" type="line"/>
      <point x="136" y="-88" type="line"/>
      <point x="323" y="-54" type="line"/>
    </contour>
    <contour>
      <point x="137" y="1" type="line"/>
      <point x="324" y="-25" type="line"/>
    </contour>
    <contour>
      <point x="136" y="-88" type="move"/>
      <point x="368" y="-88" type="line"/>
      <point x="433" y="-64" type="line"/>
      <point x="433" y="-25" type="line"/>
      <point x="368" y="1" type="line"/>
      <point x="137" y="1" type="line"/>
    </contour>
  </outline>
</glyph>
<glyph name="f_f" format="2">
  <advance width="747"/>
  <unicode hex="FB00"/>
  <outline>
    <contour>
      <point x="308" y="0" type="line"/>
      <point x="308" y="92" type="line"/>
      <point x="41" y="92" type="line"/>
      <point x="41" y="0" type="line"/>
    </contour>
    <contour>
      <point x="205" y="124" type="line"/>
      <point x="126" y="124" type="line"/>
      <point x="43" y="61" type="line"/>
      <point x="287" y="61" type="line"/>
    </contour>
    <contour>
      <point x="122" y="566" type="line"/>
      <point x="122" y="0" type="line"/>
      <point x="206" y="0" type="line"/>
      <point x="206" y="584" type="line"/>
    </contour>
    <contour>
      <point x="447" y="684" type="line"/>
      <point x="368" y="759" type="line"/>
      <point x="348" y="762"/>
      <point x="329" y="763"/>
      <point x="316" y="763" type="curve"/>
      <point x="185" y="758"/>
      <point x="124" y="693"/>
      <point x="124" y="643" type="curve"/>
      <point x="123" y="625"/>
      <point x="122" y="587"/>
      <point x="122" y="562" type="curve" smooth="yes"/>
      <point x="122" y="556"/>
      <point x="122" y="550"/>
      <point x="122" y="546" type="curve"/>
      <point x="122" y="546"/>
      <point x="206" y="584"/>
      <point x="206" y="584" type="curve"/>
      <point x="206" y="642"/>
      <point x="250" y="661"/>
      <point x="320" y="661" type="curve" smooth="yes"/>
      <point x="325" y="661"/>
      <point x="330" y="661"/>
      <point x="336" y="661" type="curve"/>
      <point x="371" y="659"/>
      <point x="404" y="650"/>
      <point x="427" y="634" type="curve"/>
    </contour>
    <contour>
      <point x="370" y="380" type="line"/>
      <point x="370" y="478" type="line"/>
      <point x="40" y="478" type="line"/>
      <point x="40" y="380" type="line"/>
    </contour>
    <contour>
      <point x="368" y="759" type="line"/>
      <point x="446" y="685" type="line"/>
    </contour>
    <contour>
      <point x="131" y="520" type="line"/>
      <point x="79" y="477" type="line"/>
      <point x="131" y="477" type="line"/>
    </contour>
    <contour>
      <point x="638" y="-1" type="line"/>
      <point x="638" y="91" type="line"/>
      <point x="371" y="91" type="line"/>
      <point x="371" y="-1" type="line"/>
    </contour>
    <contour>
      <point x="535" y="123" type="line"/>
      <point x="456" y="123" type="line"/>
      <point x="373" y="60" type="line"/>
      <point x="617" y="60" type="line"/>
    </contour>
    <contour>
      <point x="452" y="565" type="line"/>
      <point x="452" y="-1" type="line"/>
      <point x="536" y="-1" type="line"/>
      <point x="536" y="583" type="line"/>
    </contour>
    <contour>
      <point x="777" y="683" type="line"/>
      <point x="698" y="758" type="line"/>
      <point x="678" y="761"/>
      <point x="659" y="762"/>
      <point x="646" y="762" type="curve"/>
      <point x="515" y="757"/>
      <point x="454" y="692"/>
      <point x="454" y="642" type="curve"/>
      <point x="453" y="624"/>
      <point x="452" y="586"/>
      <point x="452" y="561" type="curve" smooth="yes"/>
      <point x="452" y="555"/>
      <point x="452" y="549"/>
      <point x="452" y="545" type="curve"/>
      <point x="452" y="545"/>
      <point x="536" y="583"/>
      <point x="536" y="583" type="curve"/>
      <point x="536" y="641"/>
      <point x="580" y="660"/>
      <point x="650" y="660" type="curve" smooth="yes"/>
      <point x="655" y="660"/>
      <point x="660" y="660"/>
      <point x="666" y="660" type="curve"/>
      <point x="701" y="658"/>
      <point x="734" y="649"/>
      <point x="757" y="633" type="curve"/>
    </contour>
    <contour>
      <point x="700" y="379" type="line"/>
      <point x="700" y="477" type="line"/>
      <point x="370" y="477" type="line"/>
      <point x="370" y="379" type="line"/>
    </contour>
    <contour>
      <point x="698" y="758" type="line"/>
      <point x="776" y="684" type="line"/>
    </contour>
    <contour>
      <point x="461" y="519" type="line"/>
      <point x="409" y="476" type="line"/>
      <point x="461" y="476" type="line"/>
    </contour>
  </outline>
</glyph>
<glyph name=".notdef" format="2">
  <advance width="660"/>
  <guideline x="340" y="343" angle="90" identifier="oRr2mTXj0w"/>
  <outline>
    <contour>
      <point x="341" y="99" type="line"/>
      <point x="522" y="45" type="line"/>
      <point x="546" y="76" type="line"/>
      <point x="434" y="168" type="line"/>
      <point x="341" y="214" type="line"/>
      <point x="248" y="168" type="line"/>
      <point x="136" y="76" type="line"/>
      <point x="160" y="45" type="line"/>
    </contour>
    <contour>
      <point x="166" y="367" type="line"/>
      <point x="75" y="322" type="line"/>
    </contour>
    <contour>
      <point x="257" y="322" type="line"/>
      <point x="167" y="367" type="line"/>
      <point x="75" y="322" type="line"/>
      <point x="75" y="261" type="line"/>
      <point x="166" y="214" type="line"/>
      <point x="257" y="261" type="line"/>
    </contour>
    <contour>
      <point x="519" y="366" type="line"/>
      <point x="428" y="321" type="line"/>
    </contour>
    <contour>
      <point x="610" y="321" type="line"/>
      <point x="520" y="366" type="line"/>
      <point x="428" y="321" type="line"/>
      <point x="428" y="260" type="line"/>
      <point x="519" y="213" type="line"/>
      <point x="610" y="260" type="line"/>
    </contour>
  </outline>
</glyph>
<glyph name="commaaccentalt" format="2">
  <advance width="239"/>
  <outline>
    <contour>
      <point x="119" y="-94" type="line"/>
      <point x="87" y="-32" type="line"/>
      <point x="43" y="-32" type="line"/>
      <point x="5" y="-94" type="line"/>
      <point x="43" y="-158" type="line"/>
      <point x="87" y="-158" type="line"/>
    </contour>
    <contour>
      <point x="43" y="-32" type="line"/>
      <point x="96" y="-137" type="line"/>
      <point x="204" y="67" type="line"/>
      <point x="167" y="86" type="line"/>
    </contour>
  </outline>
</glyph>
<glyph name="dotbelowcomb" format="2">
  <outline>
    <contour>
      <point x="252.0" y="-140.0" type="line"/>
      <point x="166.0" y="-95" type="line"/>
      <point x="78" y="-140" type="line"/>
      <point x="78.0" y="-197.0" type="line"/>
      <point x="165.0" y="-242.0" type="line"/>
      <point x="252.0" y="-197" type="line"/>
    </contour>
    <contour>
      <point x="166.0" y="-95" type="line"/>
      <point x="253.0" y="-140.0" type="line"/>
    </contour>
  </outline>
</glyph>
<glyph name="macroncap" format="2">
  <outline>
    <contour>
      <point x="166" y="670" type="line"/>
    </contour>
    <contour>
      <point x="352" y="644" type="line"/>
      <point x="166" y="670" type="line"/>
      <point x="98" y="645" type="line"/>
      <point x="98" y="616" type="line"/>
      <point x="165" y="591" type="line"/>
      <point x="352" y="625" type="line"/>
    </contour>
    <contour>
      <point x="166" y="670" type="line"/>
      <point x="353" y="644" type="line"/>
    </contour>
    <contour>
      <point x="165" y="591" type="move"/>
      <point x="467" y="591" type="line"/>
      <point x="532" y="615" type="line"/>
      <point x="532" y="644" type="line"/>
      <point x="467" y="670" type="line"/>
      <point x="166" y="670" type="line"/>
    </contour>
  </outline>
</glyph>
